<?xml version="1.0" encoding="utf-8"?><svg fill="none" height="40" viewBox="0 0 40 40" width="40" xmlns="http://www.w3.org/2000/svg"><g stroke="#050ee0" stroke-linecap="round" stroke-linejoin="round" stroke-width="1.5"><rect height="7.2" rx="1.25" transform="matrix(.70710678 -.70710678 .70710678 .70710678 .165584 12.192714)" width="7.5" x="14.8007" y="5.89648"/><rect height="7.2" rx="1.25" transform="matrix(.70710678 -.70710678 .70710678 .70710678 -13.40568 6.245226)" width="7.5" x=".835815" y="19.3047"/><rect height="7.2" rx="1.25" transform="matrix(.70710678 -.70710678 .70710678 .70710678 -5.225264 25.994496)" width="7.5" x="28.7655" y="19.3047"/><path d="m17.3466 8.33594-8.66166 8.31516"/><path d="m22.6498 8.33594 8.6616 8.31516"/><path clip-rule="evenodd" d="m18.8182 15.5521-4.975 9.552c-1.3433 2.579-.817 5.6938 1.3067 7.7328 2.7251 2.6159 7.1432 2.6159 9.8683 0 2.1237-2.039 2.65-5.1538 1.3067-7.7328l-4.975-9.552c-.2396-.4604-.7297-.7513-1.2659-.7513-.5361 0-1.0262.2909-1.2658.7513z" fill-rule="evenodd"/><path d="m20.0864 14.8008v11.5472"/><path d="m12.4984 37.2012h15"/></g></svg>