<?xml version="1.0" encoding="utf-8"?><svg fill="none" height="40" viewBox="0 0 40 40" width="40" xmlns="http://www.w3.org/2000/svg"><g stroke="#050ee0" stroke-linecap="round" stroke-linejoin="round" stroke-width="1.5"><path d="m1.27686 22.0391 4.895 2.4783"/><path d="m1.43372 15.3906 4.68666 2.51"/><path d="m3.4082 9.86328 2.815 1.73502"/><path d="m18.0981 8.58594 13.75 7.02496"/><path clip-rule="evenodd" d="m23.4365 5.85822-10.3133 5.26998c-1.1723.6081-1.9059 1.821-1.9 3.1417v11.465c-.0055 1.321.7287 2.534 1.9016 3.1416l10.3117 5.2684c.9653.4949 2.1097.4949 3.075 0l10.3117-5.2684c1.1726-.6078 1.9062-1.8209 1.9-3.1416v-11.465c.0066-1.3209-.7272-2.5341-1.9-3.1417l-10.3117-5.26998c-.9656-.49325-2.1093-.49325-3.075 0z" fill-rule="evenodd"/><path d="m38.1799 12.375-13.2067 6.7467-13.205-6.7467"/><path d="m24.9731 19.123v15.3934"/><path d="m31.8481 15.6133v4.8533"/></g></svg>