<svg width="47" height="44" viewBox="0 0 47 44" fill="none" xmlns="http://www.w3.org/2000/svg">
<g clip-path="url(#clip0_3783_484303)">
<path fill-rule="evenodd" clip-rule="evenodd" d="M8.92749 0H38.0728C42.4916 0 46.0642 3.57265 46.0642 7.99145V36.0085C46.0642 40.4274 42.4916 44 38.0728 44H8.92749C4.50868 44 0.936035 40.4274 0.936035 36.0085V7.99145C0.936035 3.57265 4.50868 0 8.92749 0ZM19.0627 26.3254H12.0678L10.6388 30.7631C10.6012 30.9323 10.4508 31.0451 10.2815 31.0263H6.74648C6.53964 31.0263 6.48323 30.9135 6.53964 30.6878L12.5943 13.3323C12.6508 13.1442 12.7072 12.975 12.7824 12.7494C12.8576 12.3545 12.8952 11.9408 12.8952 11.5272C12.8764 11.4331 12.9516 11.3391 13.0456 11.3203H13.102H17.9157C18.0473 11.3203 18.1414 11.3767 18.1602 11.4707L25.0234 30.6502C25.0798 30.8571 25.0234 30.9511 24.8354 30.9511H20.9055C20.7738 30.9699 20.6422 30.8759 20.6046 30.7442L19.0627 26.2314V26.3254ZM13.1584 22.5836H17.9345C17.8217 22.1887 17.6713 21.7186 17.502 21.2297C17.3328 20.722 17.1636 20.1767 16.9943 19.6126C16.9003 19.3212 16.8111 19.0346 16.7218 18.7479L16.7217 18.7477L16.7217 18.7476C16.6324 18.4609 16.5431 18.1741 16.449 17.8827C16.261 17.2998 16.0918 16.7545 15.9414 16.2092C15.8748 15.9763 15.8119 15.7507 15.7511 15.5325L15.751 15.5323C15.6744 15.2573 15.601 14.9941 15.5277 14.7425H15.4901C15.3208 15.5511 15.114 16.3596 14.8508 17.1682C14.7433 17.512 14.6359 17.8612 14.5274 18.2138C14.3511 18.787 14.1721 19.369 13.9858 19.9511C13.7414 20.9101 13.4405 21.7938 13.1584 22.5836ZM30.1379 24.6331H36.0986C36.3506 24.6331 36.5925 24.6531 36.827 24.6725C37.0476 24.6907 37.2617 24.7083 37.4713 24.7083C37.9037 24.7083 38.261 24.6895 38.5619 24.6519C38.6675 24.6453 38.7615 24.6387 38.844 24.6329C38.9964 24.6222 39.1092 24.6143 39.1824 24.6143C39.314 24.6143 39.4268 24.5015 39.4456 24.3699C39.454 24.2945 39.4624 24.2005 39.4724 24.0878C39.4849 23.9475 39.5 23.7783 39.5208 23.5801C39.5396 23.2229 39.5584 22.828 39.5584 22.3767C39.5584 21.6058 39.4456 20.8348 39.2012 20.0827C38.9567 19.293 38.5619 18.5784 38.073 17.9391C37.5465 17.281 36.8696 16.7733 36.0986 16.4348C35.1772 16.0212 34.1807 15.8331 33.1841 15.8519C31.9807 15.8519 30.9277 16.0024 30.0439 16.4348C29.1602 16.8673 28.3892 17.469 27.7687 18.2212C27.1294 18.9921 26.6593 19.8571 26.3584 20.7972C26.0388 21.775 25.8884 22.7716 25.8884 23.787C25.8884 24.7271 26.02 25.6485 26.2832 26.5323C26.5465 27.4348 26.979 28.2622 27.5807 28.9955C28.22 29.7665 29.0285 30.387 29.9499 30.7819C30.9277 31.2143 32.1311 31.44 33.5602 31.44C34.4627 31.4588 35.3465 31.3836 36.2302 31.2143C36.8884 31.1015 37.5089 30.9135 38.1106 30.6502C38.167 30.6126 38.2046 30.575 38.2422 30.5186L38.2422 30.5186C38.261 30.4434 38.2798 30.3682 38.2798 30.293V27.416C38.2798 27.228 38.2234 27.1904 38.1294 27.2656C37.6029 27.4725 37.0388 27.6229 36.4559 27.6981C35.8166 27.8297 35.1584 27.8861 34.5003 27.9049C33.673 27.9237 32.8456 27.7545 32.0935 27.4348C31.5294 27.2092 31.0593 26.8143 30.7208 26.3066C30.4012 25.7989 30.2131 25.216 30.1379 24.6331ZM34.1055 21.8878H30.1379C30.1943 21.4177 30.326 20.9665 30.5516 20.534C31.0405 19.5938 32.0183 19.0485 33.0525 19.1049C34.1619 19.0673 35.1584 19.7819 35.4969 20.8348C35.5721 21.0605 35.6097 21.2861 35.6097 21.5306V21.7186C35.4781 21.8126 35.3277 21.8502 35.1772 21.869C34.9516 21.8878 34.5943 21.8878 34.1055 21.8878Z" fill="white"/>
</g>
<defs>
<clipPath id="clip0_3783_484303">
<rect width="45.1282" height="44" fill="white" transform="translate(0.936035)"/>
</clipPath>
</defs>
</svg>
