<svg width="41" height="44" viewBox="0 0 41 44" fill="none" xmlns="http://www.w3.org/2000/svg">
<g clip-path="url(#clip0_5497_402905)">
<path d="M37.592 21.9552C37.592 12.5038 30.4698 4.69052 21.3127 3.58988L22.0806 2.7772C22.7077 2.11809 22.6821 1.07504 22.023 0.447935C21.3639 -0.179174 20.3209 -0.153578 19.6938 0.505526L16.1615 4.22978C15.8607 4.54334 15.7007 4.97208 15.7071 5.40721C15.7199 5.84235 15.9055 6.25829 16.2191 6.55905L19.9433 10.0913C20.2633 10.3921 20.6664 10.5457 21.076 10.5457C21.5111 10.5457 21.9462 10.3729 22.2726 10.0337C22.8997 9.37464 22.8741 8.33159 22.215 7.70448L21.3767 6.91099C28.6845 8.01803 34.3028 14.3403 34.3028 21.9552C34.3028 30.3444 27.475 37.1722 19.0859 37.1722H1.96194C1.05328 37.1722 0.317383 37.9081 0.317383 38.8167C0.317383 39.7254 1.05328 40.4613 1.96194 40.4613H19.0859C22.9893 40.4613 26.6112 39.2455 29.6059 37.1722C34.4308 33.8255 37.592 28.2583 37.592 21.9552Z" fill="white"/>
<path d="M6.24928 35.7579H12.1684C6.95958 33.3391 3.3441 28.0599 3.3441 21.9551C3.3441 15.4601 7.46511 9.68173 13.6018 7.56364C14.4593 7.26928 14.92 6.32862 14.6193 5.47114C14.3249 4.61367 13.3906 4.15294 12.5268 4.45369C5.06545 7.02612 0.048584 14.0587 0.048584 21.9551C0.048584 27.4391 2.44823 32.3664 6.24928 35.7579Z" fill="white"/>
<path d="M40.5034 37.6905L36.9711 33.9662C36.344 33.3071 35.3009 33.2815 34.6418 33.9086C33.9827 34.5357 33.9571 35.5788 34.5842 36.2379L35.4737 37.1786H31.9222C30.2969 38.5544 28.4475 39.6678 26.4382 40.4677H35.1986L34.4627 41.1716C33.8036 41.7987 33.778 42.8417 34.4051 43.5008C34.7314 43.84 35.1602 44.0128 35.6017 44.0128C36.0112 44.0128 36.4144 43.8656 36.7343 43.5584L40.4586 40.0261C41.1177 39.399 41.1433 38.356 40.5162 37.6969L40.5034 37.6905Z" fill="white"/>
</g>
<defs>
<clipPath id="clip0_5497_402905">
<rect width="40.9028" height="44" fill="white" transform="translate(0.048584)"/>
</clipPath>
</defs>
</svg>
