<svg width="48" height="44" viewBox="0 0 48 44" fill="none" xmlns="http://www.w3.org/2000/svg">
<g clip-path="url(#clip0_5497_402923)">
<path d="M25.4676 0C26.6492 0.41929 27.8944 0.711522 28.9998 1.27693C33.0593 3.35432 35.1367 8.02368 34.1583 12.6232C33.2372 16.9749 29.3492 20.3101 24.9085 20.6977C18.8606 21.2186 13.4988 16.4412 13.575 10.1328C13.6322 5.52065 16.9484 1.39128 21.4526 0.279526C21.8147 0.190586 22.1705 0.0889402 22.5326 0C23.5109 0 24.4893 0 25.474 0L25.4676 0Z" fill="white"/>
<path d="M20.9443 33.6384C20.9443 39.375 16.3004 43.9999 10.5256 44.0063C4.73817 44.0063 0.119629 39.4132 0.119629 33.6447C0.119629 27.8763 4.72546 23.2832 10.5129 23.2769C16.2813 23.2769 20.938 27.8954 20.9443 33.632V33.6384Z" fill="white"/>
<path d="M37.4362 44C31.7059 43.9809 27.1064 39.4068 27.0556 33.6638C27.0048 27.9399 31.7186 23.2642 37.5251 23.2769C43.3316 23.2896 47.8994 27.9145 47.8803 33.7528C47.8612 39.4322 43.1855 44.0127 37.4362 44Z" fill="white"/>
</g>
<defs>
<clipPath id="clip0_5497_402923">
<rect width="47.7609" height="44" fill="white" transform="translate(0.119629)"/>
</clipPath>
</defs>
</svg>
