<svg width="54" height="44" viewBox="0 0 54 44" fill="none" xmlns="http://www.w3.org/2000/svg">
<path d="M15.5307 17.6218C15.5307 18.2803 15.6019 18.8142 15.7265 19.2058C15.8689 19.5973 16.0468 20.0245 16.296 20.4872C16.385 20.6296 16.4206 20.772 16.4206 20.8966C16.4206 21.0745 16.3138 21.2525 16.0824 21.4305L14.9612 22.178C14.801 22.2848 14.6408 22.3382 14.4985 22.3382C14.3205 22.3382 14.1425 22.2492 13.9645 22.089C13.7154 21.822 13.5018 21.5373 13.3238 21.2525C13.1458 20.9499 12.9679 20.6118 12.7721 20.2024C11.3839 21.8398 9.63973 22.6585 7.53962 22.6585C6.04462 22.6585 4.85219 22.2314 3.9801 21.3771C3.10802 20.5228 2.66309 19.3838 2.66309 17.96C2.66309 16.4472 3.19701 15.2191 4.28266 14.2937C5.36831 13.3682 6.80992 12.9055 8.64306 12.9055C9.24818 12.9055 9.87109 12.9588 10.5296 13.0478C11.1881 13.1368 11.8644 13.2792 12.5763 13.4394V12.1402C12.5763 10.7875 12.2916 9.84427 11.7398 9.29255C11.1703 8.74082 10.2092 8.47386 8.83884 8.47386C8.21592 8.47386 7.57521 8.54505 6.9167 8.70523C6.25819 8.86541 5.61748 9.06118 4.99457 9.31035C4.7098 9.43493 4.49623 9.50612 4.37165 9.54171C4.24707 9.57731 4.15808 9.59511 4.08689 9.59511C3.83772 9.59511 3.71314 9.41713 3.71314 9.04338V8.1713C3.71314 7.88654 3.74874 7.67297 3.83772 7.54839C3.92671 7.4238 4.08689 7.29922 4.33606 7.17464C4.95897 6.85428 5.70647 6.58732 6.57855 6.37375C7.45063 6.14238 8.3761 6.0356 9.35497 6.0356C11.4729 6.0356 13.0213 6.51613 14.0179 7.4772C14.9968 8.43826 15.4951 9.89766 15.4951 11.8554V17.6218H15.5307ZM8.30491 20.327C8.89223 20.327 9.49735 20.2202 10.1381 20.0067C10.7788 19.7931 11.3483 19.4016 11.8288 18.8676C12.1136 18.5295 12.3272 18.1557 12.4339 17.7286C12.5407 17.3014 12.6119 16.7853 12.6119 16.1802V15.4327C12.0958 15.3081 11.5441 15.2013 10.9745 15.1301C10.405 15.059 9.8533 15.0234 9.30157 15.0234C8.10914 15.0234 7.23706 15.2547 6.64974 15.7353C6.06242 16.2158 5.77766 16.8921 5.77766 17.782C5.77766 18.6185 5.99123 19.2414 6.43617 19.6685C6.86331 20.1135 7.48622 20.327 8.30491 20.327ZM22.5963 22.2492C22.276 22.2492 22.0624 22.1958 21.92 22.0712C21.7777 21.9644 21.6531 21.7152 21.5463 21.3771L17.3639 7.61958C17.2571 7.26363 17.2037 7.03226 17.2037 6.90768C17.2037 6.62291 17.3461 6.46274 17.6308 6.46274H19.375C19.7131 6.46274 19.9445 6.51613 20.0691 6.64071C20.2115 6.7475 20.3183 6.99666 20.425 7.33482L23.415 19.1168L26.1915 7.33482C26.2804 6.97887 26.3872 6.7475 26.5296 6.64071C26.672 6.53393 26.9212 6.46274 27.2415 6.46274H28.6653C29.0035 6.46274 29.2348 6.51613 29.3772 6.64071C29.5196 6.7475 29.6442 6.99666 29.7154 7.33482L32.5274 19.2592L35.6064 7.33482C35.7131 6.97887 35.8377 6.7475 35.9623 6.64071C36.1047 6.53393 36.3361 6.46274 36.6564 6.46274H38.3116C38.5963 6.46274 38.7565 6.60512 38.7565 6.90768C38.7565 6.99666 38.7387 7.08565 38.7209 7.19244C38.7031 7.29922 38.6675 7.4416 38.5963 7.63737L34.3071 21.3949C34.2003 21.7508 34.0758 21.9822 33.9334 22.089C33.791 22.1958 33.5596 22.267 33.2571 22.267H31.7265C31.3883 22.267 31.157 22.2136 31.0146 22.089C30.8722 21.9644 30.7476 21.733 30.6764 21.3771L27.9178 9.89766L25.177 21.3593C25.088 21.7152 24.9812 21.9466 24.8388 22.0712C24.6965 22.1958 24.4473 22.2492 24.1269 22.2492H22.5963ZM45.4662 22.7297C44.5407 22.7297 43.6153 22.6229 42.7254 22.4093C41.8355 22.1958 41.1414 21.9644 40.6787 21.6974C40.3939 21.5373 40.1981 21.3593 40.1269 21.1991C40.0557 21.0389 40.0201 20.861 40.0201 20.7008V19.7931C40.0201 19.4194 40.1625 19.2414 40.4295 19.2414C40.5363 19.2414 40.6431 19.2592 40.7499 19.2948C40.8566 19.3304 41.0168 19.4016 41.1948 19.4727C41.7999 19.7397 42.4584 19.9533 43.1525 20.0957C43.8644 20.238 44.5585 20.3092 45.2704 20.3092C46.3917 20.3092 47.2638 20.1135 47.8689 19.7219C48.474 19.3304 48.7943 18.7608 48.7943 18.0311C48.7943 17.5328 48.6342 17.1235 48.3138 16.7853C47.9935 16.4472 47.3883 16.1446 46.5163 15.8598L43.9356 15.059C42.6364 14.6496 41.6753 14.0445 41.088 13.2436C40.5007 12.4605 40.1981 11.5884 40.1981 10.663C40.1981 9.91546 40.3583 9.25695 40.6787 8.68743C40.999 8.11791 41.4262 7.61958 41.9601 7.22803C42.494 6.81869 43.0991 6.51613 43.811 6.30256C44.5229 6.08899 45.2704 6 46.0535 6C46.4451 6 46.8544 6.0178 47.246 6.07119C47.6553 6.12458 48.029 6.19577 48.4028 6.26696C48.7588 6.35595 49.0969 6.44494 49.4173 6.55172C49.7376 6.65851 49.9868 6.76529 50.1648 6.87208C50.4139 7.01446 50.5919 7.15684 50.6987 7.31702C50.8055 7.4594 50.8589 7.65517 50.8589 7.90434V8.74082C50.8589 9.11457 50.7165 9.31035 50.4495 9.31035C50.3071 9.31035 50.0758 9.23916 49.7732 9.09677C48.7587 8.63404 47.6197 8.40267 46.3561 8.40267C45.3416 8.40267 44.5407 8.56285 43.989 8.901C43.4373 9.23915 43.1525 9.75528 43.1525 10.485C43.1525 10.9833 43.3305 11.4105 43.6864 11.7486C44.0424 12.0868 44.7009 12.4249 45.6442 12.7275L48.1714 13.5284C49.4529 13.9377 50.3783 14.5072 50.93 15.2369C51.4818 15.9666 51.7487 16.8031 51.7487 17.7286C51.7487 18.4939 51.5886 19.188 51.286 19.7931C50.9656 20.3982 50.5385 20.9321 49.9868 21.3593C49.4351 21.8042 48.7765 22.1246 48.0112 22.356C47.2104 22.6051 46.3739 22.7297 45.4662 22.7297Z" fill="white"/>
<path fill-rule="evenodd" clip-rule="evenodd" d="M48.8301 31.3784C42.9747 35.7032 34.4675 37.9991 27.1527 37.9991C16.9013 37.9991 7.66439 34.2082 0.68775 27.9078C0.136026 27.4095 0.634357 26.7332 1.29287 27.1248C8.83903 31.5029 18.1472 34.1548 27.7756 34.1548C34.2717 34.1548 41.4086 32.8022 47.9759 30.0258C48.9547 29.5808 49.7912 30.6665 48.8301 31.3784Z" fill="white"/>
<path fill-rule="evenodd" clip-rule="evenodd" d="M51.2686 28.6024C50.5211 27.6414 46.3208 28.1397 44.4165 28.3711C43.847 28.4423 43.758 27.9439 44.2741 27.5702C47.6201 25.2209 53.1195 25.8972 53.7602 26.6803C54.4009 27.4812 53.5822 32.9806 50.4499 35.6147C49.9693 36.024 49.5066 35.8104 49.7202 35.2765C50.4321 33.5146 52.0161 29.5457 51.2686 28.6024Z" fill="white"/>
</svg>
