<svg width="56" height="44" viewBox="0 0 56 44" fill="none" xmlns="http://www.w3.org/2000/svg">
<g clip-path="url(#clip0_3783_484278)">
<path d="M29.1534 24.7332C29.255 22.9258 30.1397 21.3354 31.4771 20.2071C32.8846 19.0527 34.6486 18.4219 36.4688 18.4219C38.2891 18.4219 40.0531 19.0527 41.4605 20.2071C42.7945 21.3354 43.6792 22.9267 43.7842 24.7314C43.8858 26.5878 43.1396 28.3117 41.8306 29.5906C40.4906 30.891 38.5929 31.7095 36.4637 31.7095C34.3344 31.7095 32.435 30.8936 31.1019 29.5932C29.792 28.3143 29.0476 26.5904 29.15 24.7357L29.1534 24.7332Z" fill="white"/>
<path d="M17.5073 28.3912C17.5194 29.0978 17.7448 30.4713 18.0831 31.5446C18.8134 33.856 20.04 35.98 21.6771 37.7678C23.4333 39.6988 25.5767 41.238 27.9675 42.2853C30.5727 43.4216 33.3852 44.0057 36.2275 44.0007C39.0698 43.9956 41.8801 43.4016 44.4813 42.256C46.869 41.1994 49.0091 39.6547 50.764 37.7213C52.401 35.9277 53.6295 33.8004 54.3649 31.486C55.0696 29.2451 55.2623 26.8746 54.9286 24.5493C54.6119 22.3211 53.8308 20.1842 52.6359 18.277C51.529 16.5032 50.1132 14.942 48.4558 13.6674L31.5348 0.671837C31.5193 0.660648 31.5073 0.647739 31.4909 0.637412C30.3807 -0.214618 28.514 -0.212036 27.2927 0.642575C26.0586 1.50321 25.9157 2.93445 27.0165 3.83467L27.0113 3.83984L34.0685 9.57856L12.5578 9.60179H12.5294C10.7513 9.60179 9.0421 10.7697 8.70387 12.2439C8.35961 13.7458 9.5645 14.992 11.4123 14.998V15.004L22.3157 14.9833L2.85671 29.9188C2.83175 29.9369 2.80507 29.9558 2.78183 29.9739C0.946958 31.3793 0.35312 33.7159 1.50895 35.1954C2.68286 36.6989 5.17698 36.7015 7.03165 35.204L17.6493 26.5116C17.6493 26.5116 17.4944 27.6855 17.5073 28.3895V28.3912ZM44.7895 32.3191C42.6017 34.5482 39.5396 35.8125 36.2244 35.8193C32.9092 35.8262 29.8428 34.5723 27.6542 32.3475C26.6207 31.3093 25.8232 30.0606 25.3159 28.6864C24.8394 27.3783 24.6561 25.9816 24.7788 24.5949C24.8946 23.2433 25.294 21.9313 25.951 20.7444C26.6119 19.5544 27.4954 18.5025 28.5536 17.6462C30.6802 15.9128 33.3878 14.9782 36.2192 14.9713C39.0507 14.9644 41.76 15.8973 43.8884 17.6246C44.945 18.4764 45.8277 19.5237 46.4884 20.7092C47.1479 21.8973 47.5497 23.211 47.6674 24.5648C47.7885 25.9508 47.6046 27.3464 47.1287 28.6537C46.6216 30.0299 45.8248 31.2811 44.792 32.3226L44.7895 32.3191Z" fill="white"/>
</g>
<defs>
<clipPath id="clip0_3783_484278">
<rect width="54.1658" height="44" fill="white" transform="translate(0.916992)"/>
</clipPath>
</defs>
</svg>
