<svg width="58" height="45" viewBox="0 0 58 45" fill="none" xmlns="http://www.w3.org/2000/svg">
<g clip-path="url(#clip0_5497_402874)">
<path d="M47.3001 26.0101C48.4101 28.1701 49.4501 30.1701 50.4601 32.1801C51.1501 33.5501 51.9601 34.8901 52.4401 36.3401C53.8801 40.7501 50.3701 44.4701 46.6601 44.3701C45.1601 44.3301 43.6601 44.3201 42.1601 44.1801C40.2801 44.0001 38.8001 43.0701 37.7801 41.4901C37.2601 40.6901 36.8701 39.8201 36.4201 38.9801C36.2801 38.7101 36.1501 38.4401 36.0001 38.1301C35.3001 39.0901 34.6101 39.9801 33.9801 40.9101C32.3401 43.3301 30.0101 44.3701 27.1601 44.3701C26.2401 44.3701 25.3201 44.2801 24.4101 44.2101C22.1701 44.0301 20.5301 42.8201 19.2301 41.0801C18.5201 40.1301 17.8701 39.1401 17.1501 38.1101C16.7601 38.9201 16.4001 39.6501 16.0401 40.3701C14.7301 43.0301 12.5201 44.2701 9.62007 44.3701C8.46007 44.4101 7.29007 44.4101 6.13007 44.3701C3.05007 44.2701 0.320068 41.5601 0.320068 38.4601C0.320068 36.9301 0.840068 35.5901 1.52007 34.2801C2.38007 32.6101 3.24007 30.9401 4.11007 29.2701C4.94007 27.6601 5.78007 26.0601 6.63007 24.4601C7.17007 23.4501 7.53007 23.3501 8.49007 23.9301C11.2701 25.6201 13.5301 27.8901 15.6401 30.3301C17.4101 32.3801 18.8401 34.6701 20.2801 36.9501C20.7701 37.7301 21.3101 38.4801 21.8501 39.2301C22.7101 40.4301 23.9401 40.9801 25.3601 41.0501C26.3401 41.1001 27.3301 40.9901 28.3201 40.9401C29.6701 40.8701 30.6301 40.1301 31.3401 39.0601C32.6501 37.1101 33.9801 35.1601 35.2001 33.1501C37.5901 29.2101 40.7801 26.1101 44.7201 23.7401C47.6001 22.0101 50.7201 20.9601 54.0201 20.4101C54.5901 20.3201 55.1701 20.2601 55.7501 20.2001C56.7101 20.1001 57.5401 20.6701 57.6601 21.5001C57.8201 22.5901 57.2501 23.3501 56.1301 23.4801C53.9901 23.7301 51.8701 24.0801 49.8601 24.8801C49.0401 25.2101 48.2501 25.6001 47.3101 26.0201L47.3001 26.0101ZM6.74007 31.2701C5.89007 32.8801 5.08007 34.4101 4.29007 35.9501C4.04007 36.4301 3.80007 36.9301 3.66007 37.4501C3.14007 39.3301 4.34007 40.9801 6.29007 41.0601C7.45007 41.1101 8.61007 41.1001 9.77007 41.0601C11.8601 40.9801 13.2801 39.6701 13.6501 37.4701C11.5001 35.3301 9.46007 33.0101 6.74007 31.2801V31.2701ZM39.4101 37.6501C40.3101 40.2901 41.5101 41.0901 43.9501 41.0701C44.8001 41.0701 45.6601 41.0301 46.5101 41.0701C48.6101 41.1801 50.3801 39.0501 49.2301 36.8301C48.4501 35.3101 47.6701 33.7901 46.8801 32.2801C46.7101 31.9601 46.5101 31.6501 46.3001 31.2901C43.6601 33.1501 41.3701 35.2501 39.4101 37.6501Z" fill="white"/>
<path d="M11.1702 15.6899C11.3602 15.2499 11.4702 14.9699 11.6102 14.6999C12.9202 12.0699 14.1902 9.41991 15.5802 6.82991C16.2202 5.62991 16.9802 4.47991 17.8602 3.43991C19.2202 1.82991 21.0202 0.859906 23.0802 0.389906C25.3502 -0.120094 27.6202 -0.130094 29.8802 0.359906C32.6102 0.949906 34.7502 2.44991 36.3002 4.76991C36.7502 5.44991 37.1802 6.15991 37.5502 6.87991C38.4302 8.57991 39.2702 10.2999 40.1302 12.0099C40.2802 12.3099 40.4502 12.5999 40.6202 12.8999C41.9602 12.3199 43.2302 11.7299 44.5202 11.2099C47.2902 10.0999 50.1502 9.33991 53.1302 9.04991C54.1102 8.94991 55.1002 8.86991 56.0902 8.84991C57.0402 8.82991 57.5502 9.29991 57.6602 10.1199C57.7802 11.0399 57.4202 11.6699 56.5502 11.9399C56.2002 12.0499 55.8202 12.1299 55.4502 12.1399C51.4602 12.2699 47.7002 13.2999 44.0902 14.9299C39.9902 16.7899 36.4402 19.4199 33.4102 22.7399C31.4702 24.8699 29.8802 27.2599 28.5102 29.7899C28.4602 29.8799 28.4202 29.9699 28.3602 30.0599C27.4402 31.6199 25.7002 31.6299 24.7302 30.1099C23.8502 28.7299 22.9902 27.3299 22.0402 25.9999C19.7702 22.8099 17.0702 20.0099 13.9302 17.6599C13.3602 17.2299 12.7102 16.8999 12.1302 16.4899C11.8002 16.2599 11.5202 15.9699 11.1702 15.6699V15.6899ZM21.3202 20.0099C21.5502 19.5799 21.7202 19.2899 21.8702 18.9899C22.7102 17.3099 23.5302 15.6199 24.4002 13.9599C24.6102 13.5599 24.9602 13.0699 25.3402 12.9599C26.8002 12.5299 28.2102 12.6199 28.9002 14.1799C29.6302 15.8299 30.5002 17.4299 31.3102 19.0399C31.4302 19.2699 31.5802 19.4799 31.7002 19.6799L37.7502 14.5599C37.6202 14.2599 37.5002 13.9799 37.3702 13.7099C36.5002 11.9699 35.6602 10.2099 34.7502 8.48991C34.3102 7.64991 33.7702 6.84991 33.2302 6.06991C32.3802 4.83991 31.1602 4.12991 29.7402 3.70991C28.1702 3.24991 26.5602 3.22991 24.9702 3.38991C23.4702 3.53991 22.0302 3.98991 20.8402 5.00991C19.9102 5.79991 19.2202 6.75991 18.6702 7.82991C17.6302 9.82991 16.6402 11.8499 15.6302 13.8699C15.5102 14.1099 15.4402 14.3699 15.3202 14.6699C17.4602 16.2499 19.4902 17.8999 21.3202 20.0099ZM26.4902 26.7199C27.3502 25.4699 28.0902 24.3299 28.9002 23.2399C29.3002 22.6999 29.3302 22.2499 29.0202 21.6499C28.3102 20.2599 27.6602 18.8299 26.9802 17.4099C26.8702 17.1899 26.7202 16.9899 26.5102 16.6699L23.6202 22.6599L26.4802 26.7099L26.4902 26.7199Z" fill="white"/>
</g>
<defs>
<clipPath id="clip0_5497_402874">
<rect width="57.36" height="44.4" fill="white" transform="translate(0.320068)"/>
</clipPath>
</defs>
</svg>
