<svg width="42" height="44" viewBox="0 0 42 44" fill="none" xmlns="http://www.w3.org/2000/svg">
<g clip-path="url(#clip0_5497_402665)">
<path d="M20.6 44.0001C9.45 44.0751 0 34.3402 0 22.0001C0 9.84217 9.31 -0.0642601 20.73 6.7381e-05C31.92 0.0643949 41.29 9.52053 41.28 22.0858C41.28 34.6726 31.58 44.1287 20.6 44.0108V44.0001ZM21.96 39.3149C22.01 39.347 22.07 39.4007 22.13 39.4221C22.22 39.4543 22.33 39.4757 22.42 39.465C24.89 39.1541 27.17 38.4143 28.96 36.388C30.1 35.1014 30.87 33.6112 31.38 31.9601C33.21 25.9776 35.02 19.9845 36.83 13.9913C36.96 13.5624 37.04 13.1336 37.17 12.6083H32.41C31.78 15.2242 31.19 17.7759 30.55 20.3168C29.91 22.847 29.42 25.4309 28.67 27.9396L28.43 27.9182C27.27 22.8149 26.1 17.7008 24.94 12.5975H19.98C22.05 19.6843 24.08 26.6531 26.11 33.6005C24.95 35.3587 23.13 35.5303 21.46 36.0449C21.61 37.1277 21.74 38.1355 21.88 39.1326C21.88 39.1969 21.95 39.2505 21.98 39.3149H21.96ZM17.47 26.9211C16.57 27.3178 15.81 27.7574 15 27.9932C12.73 28.6472 10.81 27.425 10.28 24.9806C9.89 23.1794 9.92 21.3461 10.23 19.5342C10.34 18.8909 10.56 18.2369 10.84 17.6472C11.29 16.693 12.04 16.0283 13.04 15.8568C14.12 15.6745 15.21 15.7496 16.21 16.3178C16.61 16.543 17.01 16.7788 17.47 17.0469L19.4 14.1628C19.18 13.9484 19.09 13.8519 18.99 13.7661C16.89 12.0936 14.54 11.6219 11.99 12.0615C9.49 12.4903 7.6 13.8841 6.38 16.2428C4.97 18.9767 4.78 21.9143 5.32 24.9377C5.69 27.0069 6.5 28.8402 8.09 30.1375C10.93 32.464 14.07 32.6248 17.32 31.2739C18.06 30.963 18.86 30.6414 19.35 29.773L17.48 26.8997L17.47 26.9211Z" fill="white"/>
</g>
<defs>
<clipPath id="clip0_5497_402665">
<rect width="41.28" height="44" fill="white"/>
</clipPath>
</defs>
</svg>
