<svg width="73" height="44" viewBox="0 0 73 44" fill="none" xmlns="http://www.w3.org/2000/svg">
<g clip-path="url(#clip0_3538_383601)">
<path d="M72.4199 33.9814C72.4199 36.2008 70.6294 38 68.4206 38H4.41921C2.21046 38 0.419922 36.2008 0.419922 33.9814V11.0186C0.419922 8.7992 2.21046 7 4.41921 7H68.4206C70.6294 7 72.4199 8.7992 72.4199 11.0186V33.9814Z" fill="white"/>
<path d="M12.8383 11.8672H16.248V27.7258C14.4989 28.0595 13.2147 28.193 11.8199 28.193C7.65755 28.193 5.48779 26.3022 5.48779 22.6756C5.48779 19.1828 7.79052 16.9136 11.355 16.9136C11.9085 16.9136 12.3291 16.9582 12.8385 17.0914V11.8672H12.8383ZM12.8383 19.8499C12.4398 19.7166 12.1078 19.6721 11.6871 19.6721C9.96014 19.6721 8.96374 20.74 8.96374 22.6086C8.96374 24.4332 9.91586 25.4342 11.665 25.4342C12.0412 25.4342 12.3513 25.412 12.8383 25.3455V19.8499Z" fill="#111111"/>
<path d="M21.6724 17.1593V25.102C21.6724 27.8382 21.4731 29.1507 20.8754 30.2856C20.3218 31.3758 19.591 32.0651 18.0856 32.8216L14.9194 31.3088C16.425 30.5969 17.1556 29.9744 17.6205 29.0173C18.1077 28.0386 18.2628 26.9036 18.2628 23.9225V17.1593H21.6724ZM18.2628 11.8867H21.6724V15.402H18.2628V11.8867Z" fill="#111111"/>
<path d="M23.7315 17.9374C25.2373 17.2254 26.6763 16.9141 28.2483 16.9141C29.9974 16.9141 31.1487 17.3812 31.658 18.2935C31.9457 18.805 32.0342 19.4724 32.0342 20.8965V27.8598C30.5063 28.0826 28.5803 28.2381 27.1634 28.2381C24.3073 28.2381 23.0229 27.2368 23.0229 25.0123C23.0229 22.6092 24.7278 21.497 28.9125 21.1408V20.3843C28.9125 19.7615 28.6025 19.5392 27.739 19.5392C26.4771 19.5392 25.06 19.895 23.7314 20.5848V17.9374H23.7315ZM29.0675 23.3881C26.809 23.6108 26.0784 23.9666 26.0784 24.8565C26.0784 25.5238 26.4992 25.8354 27.429 25.8354C27.9384 25.8354 28.4031 25.7908 29.0675 25.6798V23.3881Z" fill="#111111"/>
<path d="M33.6948 17.6928C35.7095 17.1586 37.37 16.9141 39.0527 16.9141C40.8018 16.9141 42.0639 17.3142 42.8169 18.0932C43.5254 18.8271 43.7466 19.6279 43.7466 21.3414V28.0602H40.3371V21.4748C40.3371 20.1623 39.8943 19.6726 38.6766 19.6726C38.2117 19.6726 37.7911 19.7172 37.1045 19.9174V28.06H33.695V17.6928H33.6948Z" fill="#111111"/>
<path d="M45.0721 29.9302C46.2679 30.5529 47.4634 30.8421 48.7253 30.8421C50.9613 30.8421 51.9135 29.9302 51.9135 27.7498C51.9135 27.7277 51.9135 27.7053 51.9135 27.6827C51.2493 28.0166 50.585 28.1502 49.6996 28.1502C46.7105 28.1502 44.8062 26.17 44.8062 23.0333C44.8062 19.1399 47.6182 16.9375 52.5996 16.9375C54.0611 16.9375 55.4117 17.0931 57.0501 17.4265L55.8826 19.8982C54.9748 19.7201 55.8099 19.8743 55.1239 19.8075V20.1635L55.168 21.6093L55.19 23.4783C55.2122 23.9451 55.2122 24.4126 55.2344 24.8796C55.2344 25.3023 55.2344 25.5028 55.2344 25.8142C55.2344 28.751 54.9909 30.1304 54.2603 31.2648C53.1975 32.9335 51.3598 33.7566 48.7473 33.7566C47.4188 33.7566 46.2678 33.5563 45.072 33.0891V29.9302H45.0721ZM51.8472 19.6961C51.8029 19.6961 51.7588 19.6961 51.7366 19.6961H51.493C50.8289 19.6739 50.0541 19.8517 49.5225 20.1854C48.7035 20.6529 48.2825 21.4981 48.2825 22.6996C48.2825 24.4129 49.1241 25.3915 50.6295 25.3915C51.0945 25.3915 51.471 25.3026 51.9136 25.1691V24.9244V23.9901C51.9136 23.5896 51.8916 23.1444 51.8916 22.6774L51.8696 21.0978L51.8473 19.9632V19.6961H51.8472Z" fill="#111111"/>
<path d="M62.3437 16.8672C65.7533 16.8672 67.8346 19.0253 67.8346 22.5178C67.8346 26.0997 65.665 28.3467 62.2109 28.3467C58.8011 28.3467 56.6978 26.1887 56.6978 22.7183C56.6979 19.1139 58.8678 16.8672 62.3437 16.8672ZM62.277 25.588C63.5835 25.588 64.3585 24.4978 64.3585 22.6067C64.3585 20.7381 63.6057 19.6255 62.2996 19.6255C60.9489 19.6255 60.1737 20.716 60.1737 22.6067C60.1738 24.498 60.9488 25.588 62.277 25.588Z" fill="#111111"/>
</g>
<defs>
<clipPath id="clip0_3538_383601">
<rect width="72" height="44" fill="white" transform="translate(0.419922)"/>
</clipPath>
</defs>
</svg>
