<svg width="63" height="44" viewBox="0 0 63 44" fill="none" xmlns="http://www.w3.org/2000/svg">
<path d="M13.1878 35.4532C11.4468 35.4532 9.86403 34.0288 9.86403 32.2878C9.86403 30.5468 11.2885 29.1223 13.1878 29.1223C15.0871 29.1223 16.5115 30.5468 16.5115 32.2878C16.5115 34.0288 14.9288 35.4532 13.1878 35.4532ZM54.0223 18.2014C53.7058 15.6691 52.123 13.6115 50.0655 12.0288L49.2741 11.3957L48.641 12.1871C47.3748 13.6115 46.9 16.1439 47.0583 18.0432C47.2166 19.4676 47.6914 20.8921 48.4827 22C47.8496 22.3165 47.0583 22.6331 46.4252 22.9496C45.0007 23.4245 43.5763 23.5827 42.1518 23.5827H1.159L1.00073 24.5324C0.684179 27.5396 1.159 30.705 2.42519 33.554L3.05828 34.6619V34.8201C6.85684 41.1511 13.6626 44 21.1014 44C35.3461 44 47.0583 37.8273 52.5978 24.5324C56.2381 24.6906 59.8784 23.741 61.6194 20.259L62.0942 19.4676L61.3029 18.9928C59.2453 17.7266 56.3964 17.5683 54.0223 18.2014ZM33.605 15.6691H27.4324V21.8417H33.605V15.6691ZM33.605 7.91367H27.4324V14.0863H33.605V7.91367ZM33.605 0H27.4324V6.17266H33.605V0ZM41.2022 15.6691H35.0295V21.8417H41.2022V15.6691ZM18.2525 15.6691H12.0799V21.8417H18.2525V15.6691ZM26.0079 15.6691H19.8353V21.8417H26.0079V15.6691ZM10.6554 15.6691H4.48274V21.8417H10.6554V15.6691ZM26.0079 7.91367H19.8353V14.0863H26.0079V7.91367ZM18.2525 7.91367H12.0799V14.0863H18.2525V7.91367Z" fill="white"/>
</svg>
