<svg width="30" height="44" viewBox="0 0 30 44" fill="none" xmlns="http://www.w3.org/2000/svg">
<path d="M22.3335 14.6667C24.2784 14.6667 26.1437 13.894 27.5189 12.5188C28.8942 11.1435 29.6668 9.27825 29.6668 7.33333C29.6668 5.38841 28.8942 3.52315 27.5189 2.14788C26.1437 0.772617 24.2784 0 22.3335 0H7.66683C5.72191 0 3.85665 0.772617 2.48138 2.14788C1.10612 3.52315 0.333499 5.38841 0.333499 7.33333C0.333499 9.27825 1.10612 11.1435 2.48138 12.5188C3.85665 13.894 5.72191 14.6667 7.66683 14.6667C5.72191 14.6667 3.85665 15.4393 2.48138 16.8145C1.10612 18.1898 0.333499 20.0551 0.333499 22C0.333499 23.9449 1.10612 25.8102 2.48138 27.1854C3.85665 28.5607 5.72191 29.3333 7.66683 29.3333C6.21644 29.3333 4.79861 29.7634 3.59265 30.5692C2.38669 31.375 1.44676 32.5203 0.891716 33.8603C0.336674 35.2003 0.191449 36.6748 0.474407 38.0973C0.757366 39.5199 1.4558 40.8265 2.48138 41.8521C3.50697 42.8777 4.81364 43.5761 6.23617 43.8591C7.6587 44.142 9.13319 43.9968 10.4732 43.4418C11.8132 42.8867 12.9585 41.9468 13.7643 40.7408C14.5701 39.5349 15.0002 38.1171 15.0002 36.6667V14.6667H22.3335Z" fill="white"/>
</svg>
