<svg width="33" height="44" viewBox="0 0 33 44" fill="none" xmlns="http://www.w3.org/2000/svg">
<path d="M1.57579 28.7266L5.92539 0.853437C6.07572 -0.09715 7.35081 -0.321734 7.8009 0.528019L12.4759 9.27764L1.57579 28.7266ZM32.6335 35.2002L28.349 9.82764C28.3179 9.64628 28.2378 9.47688 28.1173 9.33779C27.9969 9.1987 27.8407 9.09522 27.6656 9.03857C27.4905 8.98191 27.3033 8.97424 27.1242 9.01638C26.9451 9.05852 26.7809 9.14887 26.6495 9.27764L0.366699 35.2002L14.9748 43.6253C15.423 43.8711 15.926 44 16.4373 44C16.9486 44 17.4516 43.8711 17.8999 43.6253L32.6335 35.2002ZM20.7498 13.102L17.4003 6.72746C17.317 6.5637 17.19 6.42619 17.0334 6.33014C16.8768 6.23409 16.6967 6.18325 16.5129 6.18325C16.3292 6.18325 16.1491 6.23409 15.9925 6.33014C15.8359 6.42619 15.7089 6.5637 15.6256 6.72746L0.901118 32.9763L20.7498 13.102Z" fill="white"/>
</svg>
