<svg width="50" height="44" viewBox="0 0 50 44" fill="none" xmlns="http://www.w3.org/2000/svg">
<path d="M15.0031 39.1802C13.1226 37.7005 11.1189 36.2855 9.75014 34.291C6.86781 30.7721 4.64826 26.6998 3.13157 22.418C2.21446 19.6343 1.89848 16.6487 0.717806 13.9713C-0.51836 12.0292 0.930514 9.90216 3.06067 9.28562C4.0086 9.10374 5.6748 8.20667 3.66179 8.84787C1.85841 10.1704 1.68424 7.64562 3.53386 7.48531C4.79777 7.31577 5.26018 6.28306 4.8286 5.35516C3.47221 4.47043 8.11477 3.50091 5.77807 2.17997C3.34582 -0.44033 9.18138 -0.945894 7.74176 2.03509C7.39958 4.32554 11.8202 1.61275 10.7936 4.2608C11.8371 5.53242 14.6994 4.55058 14.627 6.33392C16.1468 6.43874 16.6677 7.71652 18.095 7.81362C19.5747 8.48103 22.2521 9.00663 22.7546 10.6728C21.2903 11.8335 17.8947 8.27603 17.7297 11.4898C18.1736 16.2371 18.0596 21.1263 19.7952 25.6471C20.6167 28.383 22.6081 30.5378 24.4038 32.6695C26.1255 34.7565 28.4576 36.227 30.8312 37.4631C32.9152 38.4465 35.1625 39.097 37.4329 39.507C38.3531 38.8026 39.9807 36.1838 41.4157 37.2874C41.4851 38.5297 38.5642 39.883 41.277 39.7459C42.8723 39.265 43.9775 40.9789 45.2892 39.4314C46.4991 40.8649 50.314 38.5174 49.4554 41.4444C48.2917 42.1951 46.5947 41.7419 45.4294 42.7746C43.5073 41.8144 41.9768 43.6332 39.8497 43.4035C37.4868 43.8274 35.0838 43.9969 32.6886 44C28.7581 43.6917 24.746 43.5592 21.0082 42.1904C18.9012 41.5785 16.8465 40.3794 14.9969 39.1786L15.0031 39.1802ZM18.3216 40.6183C20.3778 41.5061 22.3908 42.4432 24.6412 42.7268C28.2171 43.2232 31.9087 43.9908 35.4969 43.291C33.8723 42.5573 32.1938 43.5761 30.5754 42.7669C28.6333 43.1831 26.5679 42.659 24.5641 42.4016C22.3214 41.4028 19.9 40.7154 17.8006 39.4176C15.1757 38.4588 19.157 40.6476 19.8661 40.8248C21.5061 41.7558 18.0627 40.3624 17.5756 39.9617C16.2007 39.191 16.0265 39.3513 17.44 40.1343L18.3031 40.6183H18.3216ZM14.4066 37.8531C16.3995 38.5929 14.3973 36.4504 13.4864 36.5738C13.0826 35.8724 11.9404 35.4285 12.7465 35.0524C11.2977 35.5549 11.2298 33.1412 10.5501 33.4864C9.018 33.0024 9.9536 31.2885 8.13018 30.2342C7.96371 29.1244 6.31755 28.1641 5.79349 26.4918C5.56228 25.6348 3.93307 23.1778 4.93341 25.4652C5.78424 27.6693 7.28243 29.5544 8.53093 31.438C9.4989 33.2321 10.6426 35.1064 12.4059 36.227C13.0009 36.7973 13.5742 37.6712 14.4127 37.85L14.4066 37.8531ZM8.66657 31.5489C8.73593 31.2484 9.03033 32.1994 8.66657 31.5489V31.5489ZM16.7941 38.7363C17.235 38.539 16.1591 38.4866 16.7941 38.7363V38.7363ZM17.8731 39.1309C17.7606 38.5868 17.3798 39.436 17.8731 39.1309V39.1309ZM19.2295 39.695C19.8738 39.0815 18.2353 39.3097 19.2295 39.695V39.695ZM21.5508 40.9897C21.9423 40.4117 20.2976 40.7739 21.5508 40.9897V40.9897ZM17.0962 37.8839C18.0981 37.2365 15.8015 37.8747 17.0962 37.8839V37.8839ZM18.1135 38.3926C18.0827 38.0504 17.7513 38.5467 18.1135 38.3926V38.3926ZM23.1892 41.5616C24.0061 42.0764 27.9551 42.6898 25.4827 41.7727C25.0666 41.8591 20.8972 40.5921 23.1892 41.5616ZM15.131 35.2852C15.0539 34.943 13.864 34.906 15.131 35.2852V35.2852ZM17.4939 36.6632C18.1104 36.2316 16.2177 36.3318 17.4939 36.6632V36.6632ZM19.4977 37.8962C20.3809 37.5633 18.0673 37.5618 19.4977 37.8962V37.8962ZM14.1661 34.2355C15.1218 34.9692 18.0288 34.328 15.6304 33.7978C14.5407 33.2167 12.0853 32.819 13.7592 34.1477L14.1646 34.2355H14.1661ZM20.8248 38.3001C21.2255 37.6219 19.1509 37.9116 20.8248 38.3001V38.3001ZM18.801 36.6924C21.1438 37.3552 16.8327 35.2127 18.223 36.4458L18.5312 36.5845L18.801 36.6894V36.6924ZM22.8578 39.0353C25.0774 39.0569 20.8541 38.727 22.8578 39.0353V39.0353ZM13.3122 32.9516C13.2259 32.5385 12.765 32.9855 13.3122 32.9516V32.9516ZM26.6095 41.1392C26.6681 40.3932 25.885 41.6941 26.6095 41.1392V41.1392ZM17.0993 35.2667C16.9652 34.8736 16.4057 35.2513 17.0993 35.2667V35.2667ZM13.5234 32.6926C14.7965 32.6156 11.7816 32.1316 13.5234 32.6926V32.6926ZM9.28928 29.9583C9.13052 29.3479 7.90514 28.8608 9.28928 29.9583V29.9583ZM20.4055 37.013C20.1743 36.7464 20.2976 37.0701 20.4055 37.013V37.013ZM27.3231 41.2595C27.3015 40.8526 26.947 41.4136 27.3231 41.2595V41.2595ZM19.7936 36.3811C19.9169 35.857 18.707 36.2223 19.7936 36.3811V36.3811ZM14.6393 33.1134C15.5873 33.0132 13.1211 32.4738 14.6393 33.1134V33.1134ZM23.3572 38.5313C24.8338 37.9456 21.9191 38.2461 23.3572 38.5313V38.5313ZM18.8226 35.4532C20.5227 35.6721 16.7988 34.2972 18.448 35.3299L18.8226 35.4532ZM24.7337 39.0877C26.3212 38.1398 25.7972 41.3119 27.4279 39.3559C29.0356 38.1814 26.0407 40.8079 28.0198 39.5655C29.4533 38.6068 31.5696 40.0202 32.9059 40.4795C33.8677 40.4333 34.8018 41.3119 35.7882 40.777C37.6841 40.2653 32.0767 40.0187 33.5471 39.1124C31.8115 39.6179 30.5291 38.5112 29.6737 37.3984C27.7254 36.9483 25.475 35.9526 24.5024 34.2294C24.1063 33.582 25.0727 34.3218 24.1603 33.2629C22.9888 32.2194 22.4031 31.0341 21.6139 29.764C20.6737 29.2631 20.5612 27.785 20.4672 29.7147C20.4749 28.4971 19.3312 27.6755 19.0491 28.0162C19.0445 26.8447 20.2745 27.4304 19.4129 26.5642C19.2279 25.3465 18.6176 24.0826 18.4357 22.7077C18.1505 22.045 18.3956 20.6269 17.4646 22.1266C17.1255 23.7096 17.3521 20.1814 17.8808 21.3436C18.5744 20.1568 17.6311 20.2955 17.5941 20.4604C18.0457 19.4586 17.8808 18.0374 17.4754 18.58C17.7159 17.5164 17.8561 14.6727 17.1163 15.1767C17.5633 14.0669 17.9671 10.0948 16.0188 11.6084C15.2297 11.6192 13.864 11.8951 13.2182 12.2157C15.242 13.3317 13.0147 12.6196 12.1886 12.4408C12.0807 13.4735 11.2638 13.0265 10.2465 13.0373C11.8772 13.2376 9.45266 14.7019 8.52014 14.1347C7.30555 14.7143 9.56826 16.1631 8.54326 16.6117C8.66965 17.2852 6.68285 16.3681 6.83852 17.928C5.66093 17.4317 6.67668 19.7776 7.26702 18.9838C9.27078 19.5264 8.67736 20.7625 8.72823 21.9386C8.40146 22.623 7.11597 20.3294 8.44153 20.4358C7.39341 18.7357 7.28552 19.8192 6.41465 20.6115C6.21428 20.6685 8.6342 21.7367 7.11443 22.2607C8.45078 22.4673 8.48932 23.6372 8.76059 24.3755C9.5621 25.2124 9.39717 23.4507 10.359 24.4572C9.75014 23.5632 7.13755 21.934 9.2415 22.4534C9.23071 21.5533 8.86078 20.8257 9.50661 20.8427C10.1463 19.6867 8.83766 23.6942 10.2773 22.2237C10.675 22.0496 10.7751 21.0677 11.4903 22.3162C12.5292 23.3397 11.8664 24.0795 10.3991 23.1424C10.6611 24.0333 12.3612 24.3508 12.0406 25.7427C12.3797 26.968 12.8529 26.5164 13.266 26.4455C13.5742 27.6354 13.7746 26.76 13.79 26.1943C15.2728 26.5118 14.9245 27.3888 15.39 28.0007C16.4119 28.4631 13.9257 24.8749 15.6828 26.9218C17.5278 28.5865 16.3764 29.2847 14.7195 29.018C15.7676 28.9333 16.1067 30.4361 17.4168 30.3821C18.6129 30.9524 19.4206 33.1365 17.3614 32.2256C16.6477 31.5813 14.1153 30.786 16.1838 32.0098C18.092 32.8945 19.6086 33.4217 21.449 34.533C22.7653 35.4578 23.3341 36.5491 23.8335 36.7633C22.7268 37.292 20.498 36.341 22.138 36.0497C21.1053 35.8616 19.9431 35.3407 20.9327 36.6262C21.7742 37.329 23.9121 37.255 24.2959 37.3352C23.9722 38.0504 23.4127 38.1059 24.3082 38.1629C23.3094 38.6962 24.6288 38.7794 24.7213 39.0831L24.7337 39.0877ZM22.6898 33.3169C22.081 32.6803 21.9238 31.4904 22.5819 32.5262C22.921 32.6618 23.6609 34.4729 22.6898 33.3169ZM29.3485 37.5263C29.7276 37.5016 29.3593 37.8145 29.3485 37.5263V37.5263ZM21.7342 31.7385C21.7095 30.7767 21.953 32.4784 21.7342 31.7385V31.7385ZM21.0714 30.8492C20.3053 29.3695 22.0347 31.2653 21.0714 30.8492V30.8492ZM13.0533 25.3003C13.5033 25.1801 13.2752 26.0679 13.0533 25.3003V25.3003ZM19.4345 28.7591C19.7119 27.7218 19.7427 29.6284 19.4345 28.7591V28.7591ZM14.926 25.624C14.6085 25.0537 15.5888 26.1604 14.926 25.624V25.624ZM18.7948 26.8632C18.0704 25.2402 19.3096 25.9769 18.9567 27.1283L18.7948 26.8632ZM12.1238 22.4149C11.8156 21.8816 11.2653 20.3186 11.4379 19.8408C11.5921 20.6177 13.0903 23.1856 12.1716 20.9198C11.1574 19.0085 13.3847 21.5394 13.6143 22.0172C13.7222 22.4904 12.9885 21.8877 13.4848 23.0006C12.5785 21.7336 12.95 23.7004 12.1254 22.4303L12.1238 22.4149ZM10.063 20.9937C10.1478 19.7545 10.5347 21.8415 10.063 20.9937V20.9937ZM10.9909 21.3143C11.4333 20.3803 11.74 22.6168 10.9909 21.3143V21.3143ZM8.74056 19.6189C7.97296 18.8559 7.41807 18.1546 8.77755 19.1457C9.30161 19.1657 7.61383 17.5473 8.90394 18.6308C10.2603 18.8775 9.57289 20.855 8.7421 19.6173L8.74056 19.6189ZM9.91199 19.588C10.359 19.1457 10.1494 20.0227 9.91199 19.588V19.588ZM10.6333 19.8192C9.95514 18.5522 11.4533 20.351 10.6333 19.8192V19.8192ZM9.19988 18.4505C6.968 16.4622 12.0051 19.4878 9.56364 18.8204L9.19988 18.4505ZM15.5934 22.1652C14.627 21.5872 15.336 18.0898 15.6659 20.4805C16.6061 20.1768 15.6135 21.7166 16.3132 21.7012C16.2053 22.6723 15.8894 23.0222 15.5934 22.1636V22.1652ZM17.9579 23.5632C18.0503 22.5089 18.1582 24.2845 17.9579 23.5632V23.5632ZM17.5479 23.1563C17.6558 22.7062 17.5571 23.6865 17.5479 23.1563V23.1563ZM9.65304 17.797C8.21958 15.8194 13.8193 19.7977 10.5717 18.2979C10.2326 18.2085 9.82413 18.1777 9.65304 17.797ZM14.2077 20.2107C14.0721 18.5461 14.5098 20.4882 14.2077 20.2107V20.2107ZM17.665 22.4303C17.9317 21.4824 17.685 23.0576 17.665 22.4303V22.4303ZM9.87345 17.0417C10.7258 16.8598 13.4186 18.5368 10.9447 17.5195C10.6719 17.2174 10.0877 17.3546 9.87345 17.0417ZM17.1887 20.6886C17.2812 18.9854 17.6974 19.6713 17.1918 20.9352L17.1887 20.6886ZM10.5069 16.4498C10.8553 15.9412 9.58522 14.1486 10.6888 15.8071C11.1512 16.1863 12.0714 16.4421 11.2745 16.6024C12.5307 17.7122 10.9663 16.903 10.5085 16.4483L10.5069 16.4498ZM16.8265 20.1583C17.0654 18.2162 17.0377 21.2943 16.8265 20.1583V20.1583ZM9.78251 14.6588C10.0476 14.5447 9.92123 15.0133 9.78251 14.6588V14.6588ZM11.4318 15.6406C11.8556 14.7497 12.2148 16.6333 11.4318 15.6406V15.6406ZM16.082 18.227C16.0789 17.8879 16.1699 18.7249 16.082 18.227V18.227ZM15.8123 17.632C15.168 16.0398 16.4288 18.4752 15.8123 17.632V17.632ZM15.4162 16.587C15.3083 15.9289 15.7861 17.4132 15.4162 16.587V16.587ZM16.0604 15.5389C15.6165 14.759 16.62 12.1017 16.7325 13.7509C16.2654 15.0364 16.5984 15.7547 16.9221 14.0284C17.5232 12.672 16.7926 16.7057 16.0589 15.5389H16.0604ZM16.7232 11.5838C16.9159 11.3464 16.7664 11.8689 16.7232 11.5838V11.5838ZM15.615 33.3955C15.353 33.1643 15.6489 33.5404 15.615 33.3955V33.3955ZM17.8962 34.5484C19.1647 34.8752 19.1601 34.3511 18.0118 34.1939C17.3953 33.6205 15.4501 33.0117 17.1918 34.123C17.3059 34.4313 17.6696 34.4082 17.8962 34.5469V34.5484ZM13.3954 31.5582C14.0937 32.0822 16.0265 33.0348 14.3912 31.7586C14.943 31.1174 13.3353 30.7752 13.8671 30.3467C12.5107 29.5144 12.7959 29.576 13.7469 29.6176C12.1161 28.8886 13.9827 28.944 13.8948 28.5695C13.266 28.4462 10.7721 27.4597 12.2394 28.6497C10.7474 27.8898 11.8849 28.9333 11.4333 28.8238C9.89195 28.4077 12.7897 29.986 11.1913 29.5945C12.0653 30.2881 13.5465 31.3717 11.5612 30.3282C11.2992 30.7043 12.9824 31.2761 13.4109 31.5613L13.3954 31.5582ZM15.7799 32.93C18.6777 33.8641 14.3573 31.7894 15.7799 32.93V32.93ZM27.9874 40.3254C28.0244 39.7489 27.5913 40.8186 27.9874 40.3254V40.3254ZM29.2421 40.8541C29.9111 40.2067 29.2699 41.8868 30.3519 40.6953C30.3627 39.843 30.3211 39.3389 29.1096 40.3747C28.7751 40.5597 28.6271 41.3458 29.2437 40.8526L29.2421 40.8541ZM9.32319 28.3398C9.11819 27.5322 7.88356 27.5353 9.32319 28.3398V28.3398ZM10.6642 29.2184C10.1663 28.3938 8.88853 28.4709 10.6642 29.2184V29.2184ZM18.2877 33.8163C19.0322 34.4791 21.7064 34.3018 19.1909 33.898C18.821 33.3477 16.828 33.4818 18.2877 33.8163ZM28.7658 40.29C29.9111 39.3282 27.6561 40.7185 28.7658 40.29V40.29ZM31.1488 41.9269C31.1565 41.6186 30.6555 42.061 31.1488 41.9269V41.9269ZM31.1534 41.4953C32.4219 40.1543 29.9249 41.5724 31.1534 41.4953V41.4953ZM6.02777 25.5808C4.94882 24.0395 5.35574 23.3459 4.31379 22.0866C4.11649 21.1232 2.52582 18.9376 3.4907 21.2542C4.37544 22.6106 4.63747 24.7069 6.02777 25.5854V25.5808ZM30.7511 41.0653C33.0863 39.5578 29.7955 40.4086 30.7511 41.0653V41.0653ZM32.5329 41.7635C33.7043 40.7616 31.7931 41.5539 32.5329 41.7635V41.7635ZM8.92552 26.6366C9.25999 26.1388 8.06236 26.5719 8.92552 26.6366V26.6366ZM32.1614 41.2872C33.2928 40.5582 31.8994 40.6707 31.9564 41.3535L32.1614 41.2872ZM16.8065 31.6075C16.7679 31.1143 16.2084 31.6491 16.8065 31.6075V31.6075ZM17.7544 32.1531C17.4523 31.5428 17.292 32.2487 17.7544 32.1531V32.1531ZM33.9771 41.7789C35.426 40.7308 33.0986 41.5785 33.6735 41.9793L33.9771 41.7789ZM33.4223 41.5107C34.6045 40.5212 32.1738 41.9485 33.4223 41.5107V41.5107ZM36.2584 43.3989C37.0506 42.8686 35.295 43.2293 36.2584 43.3989V43.3989ZM9.65458 26.2744C10.7181 26.5118 13.901 28.8916 12.0236 26.4393C11.0618 26.1542 11.6383 23.8036 10.6565 24.2198C11.3146 25.3203 11.1959 25.7889 9.81488 25.0953C8.07777 24.2475 8.8392 25.5145 9.1783 25.866C8.71589 25.9739 9.79022 26.2667 9.65612 26.276L9.65458 26.2744ZM4.81473 22.4519C5.00431 21.6658 3.06221 18.1207 3.89762 20.6762C4.19818 21.2111 4.16736 22.2253 4.81473 22.4519ZM13.7022 27.9314C13.1535 27.4736 13.676 27.8666 13.7022 27.9314V27.9314ZM15.0493 28.2458C15.0493 27.4135 13.5604 27.9067 15.0493 28.2458V28.2458ZM26.7282 35.6073C26.5047 35.037 25.8496 35.595 26.7282 35.6073V35.6073ZM27.2892 36.0173C27.206 35.6983 26.9809 36.079 27.2892 36.0173V36.0173ZM31.9179 38.9336C32.3649 38.6053 31.363 38.8904 31.9179 38.9336V38.9336ZM7.23003 23.0715C8.50319 22.5783 5.86593 22.7201 7.23003 23.0715V23.0715ZM25.6955 34.7056C25.68 33.881 24.8832 34.9106 25.6955 34.7056V34.7056ZM6.72601 21.897C7.54292 21.6195 5.97074 21.7151 6.72601 21.897V21.897ZM9.09969 23.0468C9.08428 22.7756 8.84845 23.1501 9.09969 23.0468V23.0468ZM38.0587 40.8032C39.1099 40.5905 41.5082 41.3381 41.8966 40.5258C40.6173 40.495 37.4776 39.6241 37.3296 40.7323L37.607 40.7786L38.0587 40.8063V40.8032ZM9.85496 23.238C9.87345 22.4025 9.2045 23.2071 9.85496 23.238V23.238ZM3.61247 18.9068C3.32886 17.3161 2.53352 18.6663 3.61247 18.9068V18.9068ZM5.09988 19.2813C5.11837 18.7696 3.73732 18.822 5.09988 19.2813V19.2813ZM5.9507 19.6975C5.70409 19.4971 5.75958 19.9487 5.9507 19.6975V19.6975ZM11.3038 23.1301C11.5566 22.8989 10.7073 22.9605 11.3038 23.1301V23.1301ZM5.38503 18.7526C5.24014 17.5504 3.65871 18.5723 5.38503 18.7526V18.7526ZM2.33315 16.772C2.28999 16.2171 2.03566 16.9816 2.33315 16.772V16.772ZM2.78785 16.4298C2.71386 15.7716 2.39788 16.513 2.78785 16.4298V16.4298ZM5.29563 17.9249C6.35608 17.5087 3.36431 17.0618 5.07984 17.8478L5.29563 17.9249ZM38.8632 38.6669C39.5414 38.0442 38.0001 38.4742 38.8632 38.6669V38.6669ZM42.917 40.7678C43.1898 39.9663 42.2311 40.8757 42.917 40.7678V40.7678ZM5.54995 16.6178C5.66247 15.8395 4.70837 16.772 5.54995 16.6178V16.6178ZM1.98018 14.2287C1.79213 13.1267 1.81987 11.2 3.651 11.8504C1.20487 12.3375 5.34649 14.8931 4.82243 12.8739C5.85206 12.9248 6.83544 12.2651 6.29443 13.2639C8.32439 13.0434 9.72702 11.2832 11.6876 11.5314C13.229 11.3279 14.8813 11.1769 16.5275 10.5603C17.8792 10.4632 19.1786 9.00817 18.4388 8.14501C16.5953 7.99088 14.6655 8.219 12.6279 8.62592C10.3698 9.09449 8.31977 9.98693 6.04164 10.3676C3.82209 10.6667 6.48864 11.1892 5.85206 11.3079C4.69604 11.7086 7.23465 11.9799 5.70255 12.4053C4.75616 12.225 3.77123 11.8998 4.17661 10.9025C2.04954 11.1799 0.179874 12.0616 1.86149 14.2257L1.9848 14.2272L1.98018 14.2287ZM7.1098 11.6316C7.60766 9.79426 9.78097 13.1421 7.92672 11.8782C7.70631 11.7117 7.34101 11.5776 7.1098 11.6316ZM7.20691 10.7407C7.92672 10.2058 7.58916 11.0412 7.20691 10.7407V10.7407ZM8.12093 10.7561C8.18721 9.91141 10.2141 11.2185 8.45541 11.0597L8.12093 10.7561ZM9.36943 10.2536C9.82721 9.71874 9.50199 10.7268 9.36943 10.2536V10.2536ZM9.69003 10.0378C10.4515 9.12377 13.995 9.45208 11.3855 9.9484C10.6919 9.42434 10.1571 10.2567 9.69003 10.0378ZM14.3141 9.32415C14.2 6.82716 16.6138 10.2104 14.3141 9.32415V9.32415ZM15.6273 9.31644C16.1051 8.0587 17.4924 8.81088 15.8508 9.06366C15.8863 9.19776 15.8015 9.71411 15.6273 9.31644ZM5.0336 15.9859C6.46706 15.1073 3.51228 15.2245 5.0336 15.9859V15.9859ZM6.09405 16.2942C6.59653 15.7593 5.0151 16.0784 6.09405 16.2942V16.2942ZM2.97127 14.0515C3.78818 13.4195 2.00021 13.8126 2.97127 14.0515V14.0515ZM45.3123 40.5397C45.3354 39.8091 44.6865 40.868 45.3123 40.5397V40.5397ZM41.0119 37.6034C41.1352 36.7633 40.457 37.6758 41.0119 37.6034V37.6034ZM46.4991 40.8248C47.6443 40.8294 49.9702 40.4703 47.4779 40.4703C47.0864 40.532 45.1967 40.5165 46.4991 40.8248ZM7.02965 15.7516C7.95755 15.6899 8.47853 14.7297 6.84931 14.7836C4.32149 14.5216 9.07811 15.6499 6.54104 15.3262C6.19886 15.5528 7.02503 15.8133 7.04507 15.7501L7.02965 15.7516ZM7.84657 16.1647C7.74947 15.5697 7.55988 16.4807 7.84657 16.1647V16.1647ZM8.81762 13.5814C9.21838 13.082 8.26274 13.4473 8.81762 13.5814V13.5814ZM5.73491 8.42708C7.39033 7.86449 9.65304 7.23253 10.436 8.70453C9.64071 7.74889 10.1154 6.80558 10.8676 8.20513C11.9312 9.62009 12.4614 7.56084 11.7709 7.0861C12.5569 8.06332 13.4509 8.52573 12.298 7.14776C13.5542 5.63723 9.78559 7.34505 8.9286 7.3281C8.51706 7.51306 4.67446 8.3084 5.738 8.42708H5.73491ZM6.70597 6.56975C7.64928 5.85764 9.97056 6.99362 8.48161 5.86073C8.33518 5.73279 5.22164 6.71926 6.70597 6.56975ZM10.1463 6.71156C11.2499 6.7393 9.66845 5.22723 10.9848 5.91313C10.769 5.20719 9.45266 5.07618 8.80838 4.79257C8.44462 5.43685 9.54823 6.71926 10.1447 6.71156H10.1463ZM7.31018 3.58877C7.69244 3.07088 6.63969 3.8508 7.31018 3.58877V3.58877ZM8.70973 3.92479C10.49 3.68896 8.25657 3.15873 8.35059 3.90629L8.70973 3.92479ZM6.08326 1.87478C4.83014 0.237866 8.44153 2.14915 7.16683 0.436701C6.09405 -0.415668 5.06597 1.39851 6.08326 1.87478ZM22.1658 10.5372C22.7407 9.5199 19.7921 9.16539 21.7804 10.1765C21.9623 10.2382 21.9222 10.6081 22.1658 10.5372Z" fill="white"/>
</svg>
