<svg width="45" height="44" viewBox="0 0 45 44" fill="none" xmlns="http://www.w3.org/2000/svg">
<path d="M39.5905 22.0006H28.5905V25.1434H36.1333C35.0333 29.8577 31.5762 33.7863 27.019 35.3577L8.94761 17.2863C10.8333 11.7863 16.1762 7.8577 22.3048 7.8577C27.019 7.8577 31.2619 10.2148 33.9333 13.8291L36.2905 11.7863C33.1476 7.54342 28.119 4.71484 22.3048 4.71484C14.1333 4.71484 7.21904 10.5291 5.49047 18.2291L26.2333 38.972C33.7762 37.0863 39.5905 30.172 39.5905 22.0006ZM5.01904 22.1577C5.01904 26.5577 6.74761 30.8006 10.0476 34.1006C13.3476 37.4006 17.7476 39.1291 21.9905 39.1291L5.01904 22.1577Z" fill="#111111"/>
<path d="M22.3047 0C10.2047 0 0.304688 9.9 0.304688 22C0.304688 34.1 10.2047 44 22.3047 44C34.4047 44 44.3047 34.1 44.3047 22C44.3047 9.9 34.4047 0 22.3047 0ZM10.0475 34.2571C6.74754 30.9571 5.01897 26.5571 5.01897 22.3143L22.1475 39.2857C17.7475 39.1286 13.3475 37.5571 10.0475 34.2571ZM26.0761 38.8143L5.4904 18.2286C7.21897 10.5286 14.1333 4.71429 22.3047 4.71429C28.119 4.71429 33.1475 7.54286 36.2904 11.7857L33.9333 13.8286C31.2618 10.2143 27.019 7.85714 22.3047 7.85714C16.1761 7.85714 10.9904 11.7857 8.94754 17.2857L27.019 35.3571C31.5761 33.7857 35.0333 29.8571 36.1333 25.1429H28.5904V22H39.5904C39.5904 30.1714 33.7761 37.0857 26.0761 38.8143Z" fill="white"/>
</svg>
