<svg width="46" height="44" viewBox="0 0 46 44" fill="none" xmlns="http://www.w3.org/2000/svg">
<path d="M45.5596 24.32C45.1015 26.3227 44.8548 28.4134 44.1442 30.3221C41.7363 36.7647 37.2788 41.2693 30.8127 43.7183C29.18 44.335 28.6455 43.9708 28.6397 42.2618C28.6338 40.6585 28.6338 39.0552 28.6397 37.4519C28.6455 35.7252 28.534 34.0397 27.2654 32.6361C28.5751 32.3131 29.826 32.1016 31.0065 31.7023C34.9824 30.3691 36.8735 27.3974 37.3022 23.3745C37.6018 20.5731 37.3199 17.9009 35.3701 15.6398C35.2232 15.4695 35.2115 15.0878 35.2761 14.847C35.6813 13.3552 35.6402 11.8811 35.2056 10.407C34.8532 9.21482 34.6124 8.98578 33.4379 9.37927C32.1517 9.81386 30.889 10.3777 29.6968 11.0296C28.9509 11.4407 28.3284 11.5875 27.4651 11.3937C24.3994 10.6948 21.3044 10.7007 18.2387 11.4583C17.6103 11.611 17.1287 11.4935 16.5591 11.1881C15.361 10.548 14.1218 9.94894 12.8415 9.49085C11.3439 8.95054 10.9152 9.1561 10.7272 10.6713C10.5569 12.0338 10.7214 13.4375 10.7155 14.8235C10.7155 15.123 10.7331 15.4871 10.5745 15.7044C5.74699 22.3584 9.45868 31.2148 17.5692 32.3542C17.9275 32.407 18.2798 32.4834 18.55 32.5362C18.1859 33.4642 17.8511 34.3568 17.4752 35.226C17.3813 35.4375 17.1581 35.6724 16.9467 35.737C14.5329 36.477 12.6359 36.3595 11.0972 33.9634C10.3514 32.7946 9.44106 31.8432 8.07854 31.4909C7.57347 31.3616 7.00967 31.4674 6.46936 31.4674L6.34016 31.7493C6.63968 32.0723 6.94507 32.3894 7.23284 32.7183C7.96696 33.564 9.02996 34.2981 9.35884 35.2789C10.4512 38.5384 13.1586 39.108 16.3535 38.879C16.6413 38.8614 16.9291 38.7968 17.3813 38.7322C17.3813 40.2122 17.44 41.6099 17.3578 42.9959C17.3049 43.9239 16.6119 44.2058 15.5489 43.8416C11.0737 42.3147 7.47951 39.5896 4.71923 35.7781C-4.4954 23.0338 1.8826 4.93346 17.0465 0.804788C29.6087 -2.61913 42.4058 5.21536 45.0898 17.9772C45.2777 18.8817 45.4069 19.7978 45.5596 20.714V24.3259V24.32Z" fill="white"/>
</svg>
