<svg width="40" height="44" viewBox="0 0 40 44" fill="none" xmlns="http://www.w3.org/2000/svg">
<path d="M1.9497 32.6026L3.56494 33.5352L21.5593 2.36889L19.9441 1.4363L1.9497 32.6026Z" fill="white"/>
<path d="M37.5684 30.1094H1.57959V31.9745H37.5684V30.1094Z" fill="white"/>
<path d="M2.29233 31.1575L20.2935 41.5508L21.226 39.9355L3.22492 29.5423L2.29233 31.1575Z" fill="white"/>
<path d="M17.9291 4.07158L35.9302 14.4648L36.8628 12.8496L18.8616 2.45635L17.9291 4.07158Z" fill="white"/>
<path d="M2.2974 12.8418L3.22998 14.457L21.2311 4.06377L20.2985 2.44854L2.2974 12.8418Z" fill="white"/>
<path d="M17.6047 2.36889L35.5991 33.5352L37.2144 32.6026L19.22 1.4363L17.6047 2.36889Z" fill="white"/>
<path d="M4.87249 11.6055H3.00732V32.392H4.87249V11.6055Z" fill="white"/>
<path d="M36.1528 11.6055H34.2876V32.392H36.1528V11.6055Z" fill="white"/>
<path d="M19.1605 39.3508L19.9751 40.7617L35.6312 31.7224L34.8166 30.3115L19.1605 39.3508Z" fill="white"/>
<path d="M38.6256 33.0003C37.5469 34.8767 35.1424 35.5172 33.266 34.4385C31.3896 33.3599 30.7492 30.9554 31.8278 29.079C32.9065 27.2026 35.311 26.5621 37.1874 27.6408C39.075 28.7307 39.7154 31.1239 38.6256 33.0003Z" fill="white"/>
<path d="M7.32185 14.9222C6.24319 16.7986 3.8387 17.4391 1.96229 16.3604C0.0858891 15.2818 -0.55456 12.8773 0.524091 11.0009C1.60274 9.12446 4.00724 8.48401 5.88364 9.56267C7.76005 10.6526 8.4005 13.0458 7.32185 14.9222Z" fill="white"/>
<path d="M0.534834 33.0003C-0.543818 31.1239 0.0966311 28.7307 1.97304 27.6408C3.84944 26.5621 6.2427 27.2026 7.33259 29.079C8.41124 30.9554 7.77079 33.3487 5.89438 34.4385C4.00674 35.5172 1.61349 34.8767 0.534834 33.0003Z" fill="white"/>
<path d="M31.8385 14.9222C30.7599 13.0458 31.4003 10.6526 33.2767 9.56267C35.1532 8.48401 37.5464 9.12446 38.6363 11.0009C39.7149 12.8773 39.0745 15.2705 37.1981 16.3604C35.3217 17.4391 32.9172 16.7986 31.8385 14.9222Z" fill="white"/>
<path d="M19.58 43.9989C17.4115 43.9989 15.6587 42.2461 15.6587 40.0776C15.6587 37.9091 17.4115 36.1562 19.58 36.1562C21.7486 36.1562 23.5014 37.9091 23.5014 40.0776C23.5014 42.2349 21.7486 43.9989 19.58 43.9989Z" fill="white"/>
<path d="M19.58 7.8427C17.4115 7.8427 15.6587 6.08989 15.6587 3.92135C15.6587 1.75281 17.4115 0 19.58 0C21.7486 0 23.5014 1.75281 23.5014 3.92135C23.5014 6.08989 21.7486 7.8427 19.58 7.8427Z" fill="white"/>
</svg>
