<svg width="46" height="44" viewBox="0 0 46 44" fill="none" xmlns="http://www.w3.org/2000/svg">
<g clip-path="url(#clip0_3783_484293)">
<path fill-rule="evenodd" clip-rule="evenodd" d="M8.42749 0H37.5728C41.9916 0 45.5642 3.57265 45.5642 7.99145V36.0085C45.5642 40.4274 41.9916 44 37.5728 44H8.42749C4.00868 44 0.436035 40.4274 0.436035 36.0085V7.99145C0.436035 3.57265 4.00868 0 8.42749 0ZM22.2478 26.3236H15.2529L13.8238 30.7424C13.7862 30.9117 13.6358 31.0245 13.4666 31.0057H9.93154C9.7247 31.0057 9.66829 30.8929 9.7247 30.6672L15.7794 13.2364C15.7958 13.1816 15.8123 13.1252 15.8292 13.0672C15.8703 12.9262 15.9142 12.7758 15.9674 12.6159C16.0426 12.2211 16.0803 11.8074 16.0803 11.3937C16.0615 11.2997 16.1367 11.2057 16.2307 11.1869H16.2871H21.1008C21.2512 11.1869 21.3264 11.2433 21.3452 11.3373L28.2085 30.7048C28.2649 30.9117 28.2085 31.0057 28.0204 31.0057H24.0905C23.9589 31.0245 23.8273 30.9305 23.7897 30.7988L22.2478 26.3236ZM16.3435 22.5065H21.1196C21.0068 22.1117 20.8563 21.6416 20.6871 21.1527C20.5179 20.645 20.3486 20.0997 20.1794 19.5356C20.0854 19.2441 19.9961 18.9574 19.9067 18.6706L19.9067 18.6705C19.8174 18.3838 19.7281 18.0971 19.6341 17.8057C19.4461 17.2228 19.2768 16.6775 19.1264 16.1322C19.0599 15.8993 18.997 15.6738 18.9362 15.4556L18.9361 15.4552C18.8595 15.1803 18.7861 14.9171 18.7127 14.6655H18.6751C18.5059 15.4741 18.2991 16.2826 18.0358 17.0911C17.9284 17.4349 17.821 17.7841 17.7125 18.1367L17.7124 18.137C17.5361 18.7101 17.3571 19.2921 17.1709 19.8741C16.9076 20.833 16.6256 21.7168 16.3435 22.5065ZM30.7281 13.8194C31.1794 14.2518 31.7811 14.4963 32.4016 14.4775C33.0409 14.5151 33.6803 14.2706 34.1127 13.8194C34.564 13.3493 34.7897 12.7288 34.7709 12.0894C34.7897 11.4689 34.564 10.8672 34.1503 10.4159C33.7367 9.98345 33.1726 9.75781 32.4392 9.75781C31.8187 9.75781 31.217 9.98345 30.7657 10.4159C30.3144 10.8484 30.07 11.4501 30.0888 12.0894C30.07 12.7288 30.2956 13.3493 30.7281 13.8194ZM30.2956 16.3202V30.7988C30.2956 30.9869 30.3897 31.0997 30.5777 31.0997H34.2632C34.4324 31.0997 34.5076 31.0057 34.5076 30.7988V16.3202C34.5076 16.151 34.4324 16.057 34.2632 16.057H30.5401C30.3709 16.057 30.2956 16.1322 30.2956 16.3202Z" fill="white"/>
</g>
<defs>
<clipPath id="clip0_3783_484293">
<rect width="45.1282" height="44" fill="white" transform="translate(0.436035)"/>
</clipPath>
</defs>
</svg>
