<svg width="45" height="44" viewBox="0 0 45 44" fill="none" xmlns="http://www.w3.org/2000/svg">
<path d="M44.3047 0H0.304688V44H44.3047V0Z" fill="white"/>
<path d="M29.8617 34.377C30.748 35.8241 31.9011 36.8878 33.9404 36.8878C35.6536 36.8878 36.748 36.0315 36.748 34.8484C36.748 33.4307 35.6236 32.9285 33.7379 32.1037L32.7042 31.6602C29.7206 30.3891 27.7385 28.7967 27.7385 25.4303C27.7385 22.3294 30.1012 19.9688 33.7938 19.9688C36.4226 19.9688 38.3125 20.8837 39.6744 23.2792L36.4547 25.3465C35.7458 24.0754 34.9811 23.5747 33.7938 23.5747C32.5827 23.5747 31.8152 24.3429 31.8152 25.3465C31.8152 26.5869 32.5834 27.0891 34.3574 27.8573L35.391 28.3001C38.904 29.8066 40.8875 31.3424 40.8875 34.7954C40.8875 38.5179 37.9633 40.5573 34.0361 40.5573C30.1962 40.5573 27.7155 38.7274 26.5016 36.3291L29.8617 34.377ZM15.2558 34.7353C15.9053 35.8877 16.4962 36.862 17.9167 36.862C19.2752 36.862 20.1321 36.3305 20.1321 34.2639V20.2048H24.2667V34.3197C24.2667 38.601 21.7566 40.5496 18.0927 40.5496C14.7823 40.5496 12.8651 38.8364 11.8901 36.7729L15.2558 34.7353Z" fill="#111111"/>
</svg>
