<svg width="44" height="45" viewBox="0 0 44 45" fill="none" xmlns="http://www.w3.org/2000/svg">
<g clip-path="url(#clip0_5497_402891)">
<path d="M42.0465 0.399902H1.95348C1.17207 0.399902 0.528564 1.04341 0.528564 1.82482V42.975C0.528564 43.7679 1.17207 44.3999 1.95348 44.3999H42.0465C42.8394 44.3999 43.4714 43.7564 43.4714 42.975V1.82482C43.4714 1.03192 42.8279 0.399902 42.0465 0.399902ZM27.4641 3.26122V41.5501H17.1334V3.26122H27.4526H27.4641ZM3.38989 3.26122H14.2836V41.5501H3.38989V3.26122ZM40.6101 41.5501H30.3139V3.26122H40.6101V41.5501Z" fill="white"/>
<path d="M6.06725 8.73118H11.629C12.4219 8.73118 13.0539 8.08767 13.0539 7.30626C13.0539 6.52486 12.4104 5.88135 11.629 5.88135H6.06725C5.27435 5.88135 4.64233 6.52486 4.64233 7.30626C4.64233 8.08767 5.28584 8.73118 6.06725 8.73118Z" fill="white"/>
<path d="M19.5121 8.73118H25.0738C25.8667 8.73118 26.4988 8.08767 26.4988 7.30626C26.4988 6.52486 25.8552 5.88135 25.0738 5.88135H19.5121C18.7192 5.88135 18.0872 6.52486 18.0872 7.30626C18.0872 8.08767 18.7307 8.73118 19.5121 8.73118Z" fill="white"/>
<path d="M32.5548 8.73118H38.1166C38.9095 8.73118 39.5415 8.08767 39.5415 7.30626C39.5415 6.52486 38.898 5.88135 38.1166 5.88135H32.5548C31.7619 5.88135 31.1299 6.52486 31.1299 7.30626C31.1299 8.08767 31.7734 8.73118 32.5548 8.73118Z" fill="white"/>
<path d="M11.3993 10.949H6.13634C5.34344 10.949 4.71143 11.5925 4.71143 12.3739V17.6369C4.71143 18.4298 5.35494 19.0618 6.13634 19.0618H11.3993C12.1922 19.0618 12.8242 18.4183 12.8242 17.6369V12.3739C12.8242 11.581 12.1807 10.949 11.3993 10.949ZM9.97442 16.212H7.56126V13.7988H9.97442V16.212Z" fill="white"/>
<path d="M11.3993 20.6245H6.13634C5.34344 20.6245 4.71143 21.268 4.71143 22.0494V27.3124C4.71143 28.1053 5.35494 28.7373 6.13634 28.7373H11.3993C12.1922 28.7373 12.8242 28.0938 12.8242 27.3124V22.0494C12.8242 21.2565 12.1807 20.6245 11.3993 20.6245ZM9.97442 25.8875H7.56126V23.4743H9.97442V25.8875Z" fill="white"/>
<path d="M24.9819 10.949H19.7189C18.926 10.949 18.2939 11.5925 18.2939 12.3739V17.6369C18.2939 18.4298 18.9375 19.0618 19.7189 19.0618H24.9819C25.7748 19.0618 26.4068 18.4183 26.4068 17.6369V12.3739C26.4068 11.581 25.7633 10.949 24.9819 10.949ZM23.5569 16.212H21.1438V13.7988H23.5569V16.212Z" fill="white"/>
<path d="M38.0934 10.949H32.8304C32.0375 10.949 31.4055 11.5925 31.4055 12.3739V17.6369C31.4055 18.4298 32.049 19.0618 32.8304 19.0618H38.0934C38.8863 19.0618 39.5183 18.4183 39.5183 17.6369V12.3739C39.5183 11.581 38.8748 10.949 38.0934 10.949ZM36.6685 16.212H34.2553V13.7988H36.6685V16.212Z" fill="white"/>
<path d="M38.0934 20.6245H32.8304C32.0375 20.6245 31.4055 21.268 31.4055 22.0494V27.3124C31.4055 28.1053 32.049 28.7373 32.8304 28.7373H38.0934C38.8863 28.7373 39.5183 28.0938 39.5183 27.3124V22.0494C39.5183 21.2565 38.8748 20.6245 38.0934 20.6245ZM36.6685 25.8875H34.2553V23.4743H36.6685V25.8875Z" fill="white"/>
<path d="M38.0934 30.3806H32.8304C32.0375 30.3806 31.4055 31.0241 31.4055 31.8055V37.0685C31.4055 37.8614 32.049 38.4934 32.8304 38.4934H38.0934C38.8863 38.4934 39.5183 37.8499 39.5183 37.0685V31.8055C39.5183 31.0126 38.8748 30.3806 38.0934 30.3806ZM36.6685 35.6436H34.2553V33.2304H36.6685V35.6436Z" fill="white"/>
</g>
<defs>
<clipPath id="clip0_5497_402891">
<rect width="42.9428" height="44" fill="white" transform="translate(0.528564 0.399902)"/>
</clipPath>
</defs>
</svg>
