<svg width="74" height="44" viewBox="0 0 74 44" fill="none" xmlns="http://www.w3.org/2000/svg">
<g clip-path="url(#clip0_3538_383413)">
<path d="M18.1709 11.5789H31.995V12.6724H19.4381V20.9023H31.2462V21.9958H19.4381V31.0314H32.139V32.1249H18.1709V11.5789ZM33.2335 11.5789H34.7023L41.2111 20.6145L47.864 11.5789L56.913 0.101562L42.0464 21.5641L49.7072 32.1249H48.1808L41.2111 22.5137L34.2127 32.1249H32.7151L40.4335 21.5641L33.2335 11.5789ZM50.2544 12.6724V11.5789H66.0082V12.6724H58.7505V32.1249H57.4833V12.6724H50.2544Z" fill="white"/>
<path d="M0.876465 11.5781H2.46048L24.3031 44.1066L15.2766 32.1241L2.20128 13.132L2.14368 32.1241H0.876465V11.5781Z" fill="white"/>
<path d="M65.8808 30.701C66.1428 30.701 66.3339 30.5014 66.3339 30.2434C66.3339 29.9854 66.1428 29.7858 65.8808 29.7858C65.6219 29.7858 65.4277 29.9854 65.4277 30.2434C65.4277 30.5014 65.6219 30.701 65.8808 30.701ZM67.126 29.4971C67.126 30.2588 67.6777 30.7563 68.4821 30.7563C69.339 30.7563 69.8568 30.2434 69.8568 29.3527V26.2169H69.1664V29.3496C69.1664 29.8441 68.9167 30.1083 68.476 30.1083C68.0815 30.1083 67.8133 29.8626 67.8041 29.4971H67.126ZM70.7599 29.4571C70.8092 30.2495 71.4718 30.7563 72.4581 30.7563C73.5122 30.7563 74.1718 30.225 74.1718 29.3773C74.1718 28.7108 73.7958 28.3422 72.8835 28.1303L72.3934 28.0105C71.814 27.8754 71.5797 27.6942 71.5797 27.3778C71.5797 26.9786 71.9434 26.7175 72.4889 26.7175C73.0067 26.7175 73.3643 26.9724 73.429 27.3809H74.1009C74.0608 26.6346 73.4013 26.1094 72.4982 26.1094C71.5273 26.1094 70.8801 26.6346 70.8801 27.4239C70.8801 28.075 71.2468 28.462 72.0513 28.6494L72.6246 28.7876C73.2133 28.9258 73.4722 29.1285 73.4722 29.4664C73.4722 29.8595 73.0653 30.1451 72.5105 30.1451C71.9157 30.1451 71.5027 29.8779 71.4441 29.4571H70.7599Z" fill="white"/>
</g>
<defs>
<clipPath id="clip0_3538_383413">
<rect width="73.4516" height="44" fill="white" transform="translate(0.804688)"/>
</clipPath>
</defs>
</svg>
