<svg width="73" height="44" viewBox="0 0 73 44" fill="none" xmlns="http://www.w3.org/2000/svg">
<g clip-path="url(#clip0_3538_383614)">
<path d="M35.9359 43.997C35.697 43.9971 35.4623 43.9344 35.2554 43.8151L33.0889 42.5337C32.7641 42.3535 32.9265 42.2885 33.0305 42.2512C33.3727 42.1444 33.7001 41.9949 34.0049 41.8062C34.0307 41.7938 34.0593 41.7885 34.0878 41.7908C34.1164 41.7931 34.1438 41.8029 34.1673 41.8192L35.8303 42.8066C35.8612 42.8233 35.8958 42.8321 35.931 42.8321C35.9662 42.8321 36.0008 42.8233 36.0317 42.8066L42.5197 39.0615C42.5499 39.0433 42.575 39.0176 42.5923 38.9869C42.6097 38.9561 42.6188 38.9214 42.6188 38.8861V31.3993C42.6189 31.3634 42.6096 31.3281 42.592 31.2967C42.5743 31.2654 42.5489 31.2392 42.5181 31.2207L36.0333 27.4854C36.0029 27.4679 35.9685 27.4587 35.9334 27.4587C35.8984 27.4587 35.8639 27.4679 35.8336 27.4854L29.3488 31.2207C29.3177 31.239 29.2919 31.2651 29.274 31.2965C29.256 31.3278 29.2465 31.3632 29.2465 31.3993V38.8861C29.2464 38.9216 29.2559 38.9565 29.2739 38.987C29.2919 39.0176 29.3177 39.0428 29.3488 39.0599L31.1255 40.0863C32.0902 40.5735 32.6813 40.0002 32.6813 39.4367V32.0376C32.6813 32.0129 32.6862 31.9885 32.6957 31.9657C32.7052 31.943 32.7191 31.9223 32.7366 31.905C32.7541 31.8876 32.7749 31.8739 32.7977 31.8646C32.8206 31.8553 32.845 31.8506 32.8697 31.8508H33.6914C33.7161 31.8506 33.7406 31.8553 33.7634 31.8646C33.7863 31.8739 33.807 31.8876 33.8246 31.905C33.8421 31.9223 33.856 31.943 33.8655 31.9657C33.875 31.9885 33.8798 32.0129 33.8798 32.0376V39.4302C33.8798 40.7181 33.1799 41.4554 31.9586 41.4554C31.5835 41.4554 31.2895 41.4554 30.4645 41.0494L28.7625 40.0749C28.5557 39.954 28.3841 39.7812 28.2648 39.5735C28.1454 39.3658 28.0824 39.1306 28.082 38.891V31.4042C28.082 31.1648 28.1449 30.9296 28.2643 30.7222C28.3837 30.5147 28.5555 30.3422 28.7625 30.2219L35.2473 26.4671C35.4565 26.3529 35.691 26.293 35.9294 26.293C36.1677 26.293 36.4023 26.3529 36.6115 26.4671L43.0995 30.217C43.3064 30.3374 43.4781 30.51 43.5975 30.7174C43.7169 30.9249 43.7798 31.16 43.78 31.3993V38.8861C43.7794 39.1257 43.7164 39.3609 43.597 39.5685C43.4777 39.7762 43.3062 39.949 43.0995 40.0701L36.6115 43.8151C36.4059 43.9334 36.1731 43.9961 35.9359 43.997Z" fill="white"/>
<path d="M37.9318 38.8394C35.0929 38.8394 34.4985 37.5401 34.4985 36.4439C34.4983 36.4193 34.503 36.3949 34.5123 36.3722C34.5216 36.3494 34.5354 36.3287 34.5528 36.3114C34.5701 36.294 34.5908 36.2802 34.6136 36.2709C34.6363 36.2616 34.6607 36.2569 34.6853 36.2571H35.5249C35.5705 36.2568 35.6147 36.2731 35.6491 36.303C35.6835 36.3329 35.7058 36.3743 35.7117 36.4195C35.8384 37.2738 36.2152 37.7058 37.9318 37.7058C39.2992 37.7058 39.8806 37.3956 39.8806 36.6713C39.8806 36.2523 39.7182 35.9421 37.5923 35.7342C35.8173 35.5588 34.7194 35.1658 34.7194 33.7464C34.7194 32.4374 35.8221 31.6562 37.6719 31.6562C39.7507 31.6562 40.7787 32.3773 40.9086 33.9299C40.9109 33.9558 40.9077 33.9819 40.8993 34.0065C40.8909 34.0311 40.8775 34.0537 40.8599 34.0728C40.8422 34.0917 40.8208 34.1068 40.7971 34.1171C40.7733 34.1274 40.7477 34.1328 40.7218 34.1329H39.8806C39.8382 34.1328 39.7971 34.1183 39.764 34.0917C39.731 34.0652 39.7079 34.0281 39.6987 33.9867C39.4957 33.0886 39.0052 32.8012 37.6719 32.8012C36.1794 32.8012 36.0056 33.3209 36.0056 33.7107C36.0056 34.1816 36.2103 34.3197 38.2257 34.586C40.2411 34.8523 41.1668 35.2226 41.1668 36.6242C41.1668 38.0257 39.9959 38.8394 37.9318 38.8394Z" fill="white"/>
<path d="M47.2881 30.9888C47.2881 31.2361 47.2148 31.4779 47.0774 31.6835C46.94 31.8892 46.7447 32.0495 46.5162 32.1441C46.2877 32.2388 46.0362 32.2635 45.7937 32.2153C45.5511 32.167 45.3283 32.0479 45.1534 31.873C44.9785 31.6981 44.8594 31.4753 44.8111 31.2327C44.7629 30.9902 44.7877 30.7387 44.8823 30.5102C44.9769 30.2817 45.1372 30.0864 45.3429 29.949C45.5485 29.8116 45.7903 29.7383 46.0376 29.7383C46.369 29.7391 46.6866 29.8712 46.9209 30.1055C47.1552 30.3398 47.2873 30.6574 47.2881 30.9888ZM44.9885 30.9888C44.9878 31.1966 45.0489 31.3998 45.1639 31.5729C45.279 31.7459 45.4428 31.8809 45.6346 31.9607C45.8265 32.0405 46.0377 32.0615 46.2415 32.0212C46.4453 31.9808 46.6325 31.8808 46.7795 31.7339C46.9264 31.587 47.0264 31.3997 47.0667 31.1959C47.1071 30.9921 47.0861 30.7809 47.0063 30.5891C46.9264 30.3972 46.7915 30.2334 46.6185 30.1184C46.4454 30.0033 46.2421 29.9423 46.0344 29.9429C45.7578 29.9438 45.4928 30.0538 45.2969 30.249C45.101 30.4443 44.9902 30.709 44.9885 30.9855V30.9888ZM45.5683 30.2905H46.0555C46.2179 30.2905 46.5427 30.2905 46.5427 30.6607C46.5488 30.7407 46.5252 30.8201 46.4763 30.8836C46.4275 30.9472 46.3568 30.9904 46.278 31.005C46.4696 31.018 46.4826 31.1447 46.5086 31.3298C46.5159 31.456 46.5405 31.5806 46.5817 31.7001H46.2845C46.2845 31.6335 46.2309 31.2762 46.2309 31.2568C46.2114 31.1772 46.1838 31.1382 46.0847 31.1382H45.8427V31.7001H45.5715L45.5683 30.2905ZM45.833 30.906H46.0506C46.0782 30.9096 46.1062 30.9071 46.1326 30.8987C46.1591 30.8902 46.1834 30.876 46.2037 30.8571C46.224 30.8381 46.2399 30.8149 46.2502 30.7891C46.2606 30.7633 46.265 30.7356 46.2634 30.7078C46.2634 30.5162 46.1302 30.5162 46.0571 30.5162H45.833V30.906Z" fill="white"/>
<path fill-rule="evenodd" clip-rule="evenodd" d="M15.8369 14.705C15.8375 14.5585 15.7994 14.4145 15.7264 14.2876C15.6533 14.1607 15.548 14.0553 15.4211 13.9823L8.54335 10.0245C8.42792 9.95783 8.29812 9.91995 8.16495 9.91406H8.09349C7.95984 9.92013 7.82956 9.95799 7.71347 10.0245L0.835676 13.9823C0.709112 14.0557 0.604081 14.1612 0.531111 14.288C0.458141 14.4148 0.419796 14.5586 0.419922 14.705L0.434539 25.3635C0.4339 25.4365 0.452852 25.5083 0.489416 25.5714C0.525981 25.6345 0.578819 25.6867 0.642416 25.7224C0.704668 25.76 0.775979 25.7798 0.848668 25.7798C0.921356 25.7798 0.992668 25.76 1.05492 25.7224L5.14262 23.3822C5.26862 23.3085 5.37323 23.2032 5.44614 23.0768C5.51904 22.9503 5.55773 22.8071 5.55837 22.6611V17.6802C5.55828 17.5347 5.5965 17.3918 5.6692 17.2658C5.7419 17.1398 5.84651 17.0351 5.9725 16.9624L7.71347 15.9587C7.84038 15.8857 7.9844 15.8476 8.13084 15.8483C8.27574 15.8476 8.41816 15.8858 8.54335 15.9587L10.2843 16.9624C10.4103 17.0351 10.5149 17.1398 10.5876 17.2658C10.6603 17.3918 10.6985 17.5347 10.6984 17.6802V22.6611C10.6993 22.8072 10.7382 22.9506 10.8114 23.0771C10.8846 23.2035 10.9895 23.3087 11.1158 23.3822L15.2019 25.7224C15.2648 25.7599 15.3366 25.7797 15.4098 25.7797C15.483 25.7797 15.5548 25.7599 15.6176 25.7224C15.6804 25.6858 15.7324 25.6334 15.7686 25.5705C15.8048 25.5075 15.8239 25.4361 15.8239 25.3635L15.8369 14.705Z" fill="white"/>
<path fill-rule="evenodd" clip-rule="evenodd" d="M48.928 0.0520277C48.8649 0.017048 48.7937 -0.000871236 48.7215 3.25724e-05C48.6492 0.00093638 48.5785 0.0206321 48.5162 0.0571821C48.454 0.0937321 48.4023 0.145876 48.3663 0.208476C48.3303 0.271076 48.3112 0.341975 48.3109 0.414189V10.9704C48.3106 11.0217 48.297 11.072 48.2714 11.1164C48.2457 11.1609 48.209 11.1978 48.1647 11.2238C48.1206 11.2493 48.0704 11.2627 48.0194 11.2627C47.9684 11.2627 47.9182 11.2493 47.874 11.2238L46.1574 10.2282C46.0313 10.1552 45.8882 10.1168 45.7425 10.1168C45.5968 10.1168 45.4537 10.1552 45.3276 10.2282L38.4465 14.199C38.3199 14.2715 38.2147 14.3763 38.1417 14.5027C38.0686 14.6291 38.0304 14.7725 38.0308 14.9185V22.8632C38.0309 23.0091 38.0694 23.1523 38.1423 23.2786C38.2153 23.4049 38.3202 23.5098 38.4465 23.5827L45.3276 27.5567C45.4538 27.6294 45.5969 27.6676 45.7425 27.6676C45.8881 27.6676 46.0312 27.6294 46.1574 27.5567L53.0401 23.5827C53.1662 23.5095 53.2709 23.4046 53.3439 23.2784C53.4168 23.1521 53.4554 23.009 53.4559 22.8632V3.06299C53.4559 2.91488 53.4163 2.76946 53.3412 2.6418C53.2661 2.51415 53.1582 2.40893 53.0287 2.33705L48.928 0.0520277ZM48.2898 20.255C48.29 20.2916 48.2805 20.3276 48.2622 20.3592C48.244 20.3909 48.2176 20.4172 48.1859 20.4353L45.8229 21.7979C45.7911 21.8155 45.7553 21.8247 45.7189 21.8247C45.6826 21.8247 45.6468 21.8155 45.615 21.7979L43.2537 20.4353C43.2219 20.4172 43.1956 20.3909 43.1773 20.3592C43.159 20.3276 43.1495 20.2916 43.1497 20.255V17.5267C43.1498 17.4906 43.1593 17.4551 43.1772 17.4238C43.1952 17.3925 43.2209 17.3663 43.252 17.348L45.615 15.9822C45.6466 15.9638 45.6824 15.9541 45.7189 15.9541C45.7555 15.9541 45.7913 15.9638 45.8229 15.9822L48.1859 17.348C48.2174 17.366 48.2436 17.392 48.2618 17.4234C48.2801 17.4547 48.2897 17.4904 48.2898 17.5267V20.255Z" fill="white"/>
<path fill-rule="evenodd" clip-rule="evenodd" d="M71.8481 17.454C71.9741 17.3812 72.0787 17.2766 72.1514 17.1506C72.2241 17.0246 72.2624 16.8816 72.2623 16.7362V14.8117C72.2623 14.666 72.2241 14.5228 72.1514 14.3966C72.0787 14.2703 71.9741 14.1654 71.8481 14.0922L65.0061 10.1231C64.8794 10.0501 64.7357 10.0117 64.5895 10.0117C64.4433 10.0117 64.2996 10.0501 64.1729 10.1231L57.2952 14.0955C57.1685 14.168 57.0633 14.2728 56.9903 14.3992C56.9173 14.5255 56.879 14.669 56.8794 14.8149V22.7565C56.8796 22.9029 56.9184 23.0467 56.992 23.1733C57.0655 23.2999 57.1712 23.4049 57.2984 23.4775L64.1356 27.3752C64.2597 27.4445 64.3995 27.4808 64.5416 27.4808C64.6837 27.4808 64.8235 27.4445 64.9476 27.3752L69.0824 25.0772C69.1466 25.041 69.2 24.9884 69.2372 24.9248C69.2744 24.8611 69.294 24.7887 69.294 24.715C69.294 24.6413 69.2744 24.569 69.2372 24.5053C69.2 24.4417 69.1466 24.3891 69.0824 24.3529L62.1608 20.3805C62.0973 20.344 62.0445 20.2915 62.0078 20.2283C61.971 20.165 61.9515 20.0931 61.9513 20.02V17.5352C61.9513 17.4624 61.9705 17.3908 62.007 17.3278C62.0435 17.2648 62.096 17.2125 62.1591 17.1763L64.3142 15.9339C64.3771 15.8972 64.4485 15.8779 64.5213 15.8779C64.5941 15.8779 64.6655 15.8972 64.7284 15.9339L66.8851 17.1763C66.9482 17.2125 67.0007 17.2648 67.0372 17.3278C67.0737 17.3908 67.0929 17.4624 67.093 17.5352V19.484C67.0927 19.5571 67.1117 19.629 67.1482 19.6923C67.1846 19.7556 67.2372 19.8082 67.3005 19.8446C67.3639 19.8811 67.4357 19.9001 67.5088 19.8998C67.5819 19.8995 67.6536 19.8799 67.7166 19.8429L71.8481 17.454Z" fill="white"/>
<path fill-rule="evenodd" clip-rule="evenodd" d="M64.493 17.0843C64.5177 17.07 64.5457 17.0625 64.5742 17.0625C64.6027 17.0625 64.6307 17.07 64.6554 17.0843L65.9806 17.8459C66.0052 17.8601 66.0256 17.8805 66.0398 17.905C66.0541 17.9295 66.0617 17.9573 66.0618 17.9856V19.5089C66.0614 19.537 66.0537 19.5645 66.0394 19.5887C66.0252 19.6129 66.005 19.633 65.9806 19.647L64.6603 20.4103C64.6356 20.4245 64.6076 20.432 64.5791 20.432C64.5506 20.432 64.5226 20.4245 64.4979 20.4103L63.1792 19.647C63.1552 19.6328 63.1352 19.6126 63.1213 19.5884C63.1074 19.5642 63.0999 19.5369 63.0996 19.5089V17.9856C63.0996 17.9574 63.107 17.9297 63.1209 17.9052C63.1349 17.8807 63.1549 17.8603 63.1792 17.8459L64.493 17.0843Z" fill="white"/>
<path fill-rule="evenodd" clip-rule="evenodd" d="M26.4776 10.2059C26.6024 10.1325 26.7445 10.0938 26.8893 10.0938C27.0341 10.0938 27.1762 10.1325 27.301 10.2059L34.1219 14.1441C34.2474 14.2166 34.3515 14.3207 34.4239 14.4462C34.4963 14.5716 34.5345 14.7139 34.5344 14.8587V22.7434C34.5342 22.888 34.4959 23.0299 34.4235 23.155C34.3511 23.2802 34.2471 23.3841 34.1219 23.4564L27.301 27.3995C27.1754 27.4713 27.0332 27.5091 26.8885 27.5091C26.7438 27.5091 26.6016 27.4713 26.476 27.3995L19.655 23.4564C19.53 23.384 19.4263 23.28 19.3541 23.1549C19.282 23.0297 19.2441 22.8878 19.2441 22.7434V14.8587C19.2438 14.7138 19.2818 14.5714 19.3542 14.4459C19.4267 14.3204 19.531 14.2163 19.6566 14.1441L26.4776 10.2059Z" fill="url(#paint0_linear_3538_383614)"/>
<path opacity="0.66" d="M34.0926 14.1455L27.2976 10.2072C27.23 10.1684 27.1573 10.1394 27.0816 10.1211L19.3999 23.2612C19.4652 23.3397 19.5438 23.4063 19.6321 23.4577L26.4677 27.4008C26.5663 27.458 26.6758 27.4937 26.7891 27.5058C26.9025 27.5178 27.017 27.5058 27.1254 27.4707L34.3004 14.329C34.2438 14.2548 34.1732 14.1924 34.0926 14.1455Z" fill="#4B4B4B"/>
<path d="M27.2846 27.4013L34.0942 23.4582C34.2154 23.3841 34.3146 23.2789 34.3814 23.1535C34.4483 23.0281 34.4803 22.8872 34.4742 22.7452V22.7144L27.1076 10.1281C27.0012 10.0986 26.8901 10.0904 26.7805 10.1041C26.671 10.1177 26.5652 10.1529 26.4694 10.2077L19.7134 14.1054L27.0621 27.4923C27.1401 27.4721 27.2149 27.4415 27.2846 27.4013Z" fill="url(#paint1_linear_3538_383614)"/>
</g>
<defs>
<linearGradient id="paint0_linear_3538_383614" x1="19.2409" y1="18.8019" x2="34.5393" y2="18.8019" gradientUnits="userSpaceOnUse">
<stop offset="0.01" stop-color="white"/>
<stop offset="0.19" stop-color="#E8E8E8"/>
<stop offset="0.54" stop-color="#C3C3C3"/>
<stop offset="0.82" stop-color="#ABABAB"/>
<stop offset="1" stop-color="#A3A3A3"/>
</linearGradient>
<linearGradient id="paint1_linear_3538_383614" x1="19.1352" y1="18.7923" x2="34.916" y2="18.7923" gradientUnits="userSpaceOnUse">
<stop stop-color="#A3A3A3"/>
<stop offset="0.18" stop-color="#ABABAB"/>
<stop offset="0.46" stop-color="#C3C3C3"/>
<stop offset="0.81" stop-color="#E8E8E8"/>
<stop offset="0.99" stop-color="white"/>
</linearGradient>
<clipPath id="clip0_3538_383614">
<rect width="71.8425" height="44" fill="white" transform="translate(0.419922)"/>
</clipPath>
</defs>
</svg>
