<svg width="46" height="44" viewBox="0 0 46 44" fill="none" xmlns="http://www.w3.org/2000/svg">
<g clip-path="url(#clip0_3783_484282)">
<path fill-rule="evenodd" clip-rule="evenodd" d="M8.42749 0H37.5728C41.9916 0 45.5642 3.57265 45.5642 7.99145V36.0085C45.5642 40.4274 41.9916 44 37.5728 44H8.42749C4.00868 44 0.436035 40.4274 0.436035 36.0085V7.99145C0.436035 3.57265 4.00868 0 8.42749 0ZM10.5903 30.8559V11.5072C10.5903 11.3755 10.6467 11.3003 10.7784 11.3003C11.098 11.3003 11.3989 11.3003 11.8314 11.2815C12.0638 11.2718 12.3012 11.2671 12.5461 11.2623C12.7768 11.2577 13.0142 11.253 13.2604 11.2439C13.523 11.2342 13.7957 11.2295 14.0784 11.2246H14.0784C14.3423 11.2201 14.6149 11.2154 14.8963 11.2063C15.4792 11.1875 16.0433 11.1875 16.6074 11.1875C18.1493 11.1875 19.4279 11.3755 20.4809 11.7704C21.4211 12.0901 22.2861 12.6166 23.0006 13.3123C23.6023 13.914 24.0724 14.6473 24.3732 15.4559C24.6553 16.2456 24.8057 17.0542 24.8057 17.9003C24.8057 19.5174 24.4296 20.8525 23.6775 21.9054C22.9254 22.9584 21.8724 23.7482 20.6502 24.1995C19.3715 24.6695 17.9613 24.8388 16.4194 24.8388C15.9681 24.8388 15.6673 24.8388 15.4792 24.82C15.2912 24.8012 15.0279 24.8012 14.6707 24.8012V30.8371C14.6895 30.9687 14.5955 31.0815 14.4638 31.1003H14.3886H10.816C10.6655 31.1003 10.5903 31.0251 10.5903 30.8559ZM14.6895 14.9294V21.2473L14.7458 21.2514C14.9877 21.2687 15.2133 21.2849 15.4228 21.2849H16.4194C17.1527 21.2849 17.8861 21.1721 18.5818 20.9465C19.1835 20.7772 19.71 20.42 20.1237 19.9499C20.5185 19.4798 20.7066 18.8405 20.7066 18.0131C20.7254 17.4302 20.5749 16.8473 20.2741 16.3396C19.9544 15.8507 19.5032 15.4747 18.9579 15.2678C18.2621 14.9858 17.51 14.873 16.739 14.8918C16.2502 14.8918 15.8177 14.8918 15.4604 14.9106C15.0843 14.8918 14.8211 14.9106 14.6895 14.9294ZM34.7339 19.461C35.3732 19.5926 35.9749 19.7995 36.539 20.1003C36.6143 20.1379 36.7083 20.1379 36.8775 20.1003C36.9339 20.0627 36.9715 19.9875 36.9715 19.9123V16.8473C36.9715 16.7721 36.9527 16.6969 36.9339 16.6217C36.8963 16.5465 36.8211 16.4713 36.7459 16.4525C36.2382 16.2456 35.6929 16.0952 35.1288 16.02C34.3579 15.9072 33.5681 15.8507 32.7972 15.8507C31.4621 15.8507 30.3527 16.0576 29.469 16.5089C28.6604 16.8849 27.9647 17.4866 27.4946 18.2388C27.0809 18.9345 26.8553 19.7054 26.8553 20.514C26.8365 21.1721 26.9869 21.8302 27.2878 22.4319C27.645 23.0713 28.1339 23.6166 28.7168 24.0302C29.5442 24.5943 30.4279 25.0456 31.3869 25.3841C32.3083 25.7413 32.9288 26.0234 33.2296 26.2678C33.5305 26.5123 33.6809 26.7567 33.6809 27.02C33.6809 27.3584 33.4741 27.6781 33.1732 27.8097C32.8348 27.979 32.3271 28.073 31.6126 28.073C30.8604 28.073 30.1083 27.979 29.3938 27.7909C28.5664 27.6029 27.7955 27.302 27.0621 26.8695C27.0057 26.8319 26.9493 26.8131 26.8929 26.8507C26.8365 26.8884 26.8177 26.9636 26.8177 27.02V30.2918C26.7989 30.4422 26.8929 30.5738 27.0245 30.649C27.6262 30.9311 28.2843 31.1379 28.9425 31.2507C29.7886 31.42 30.6348 31.4952 31.4997 31.4952C32.8536 31.4952 33.9818 31.2884 34.9032 30.8935C35.7493 30.555 36.4826 29.9721 37.0091 29.22C37.498 28.4866 37.7613 27.6029 37.7425 26.7191C37.7613 26.0422 37.6108 25.3841 37.31 24.7824C36.9527 24.1431 36.445 23.6166 35.8245 23.2217C34.922 22.6576 33.9442 22.1875 32.9288 21.849C32.4775 21.661 32.0262 21.4542 31.5938 21.2285C31.3493 21.0969 31.1237 20.9277 30.9544 20.7208C30.8416 20.5704 30.7664 20.4012 30.7664 20.2319C30.7664 20.0627 30.8228 19.8747 30.9168 19.7243C31.0485 19.5362 31.2553 19.4046 31.4997 19.3482C31.857 19.2542 32.2519 19.1978 32.6279 19.2166C33.3425 19.2166 34.0382 19.3106 34.7339 19.461Z" fill="white"/>
</g>
<defs>
<clipPath id="clip0_3783_484282">
<rect width="45.1282" height="44" fill="white" transform="translate(0.436035)"/>
</clipPath>
</defs>
</svg>
