<svg width="47" height="44" viewBox="0 0 47 44" fill="none" xmlns="http://www.w3.org/2000/svg">
<g clip-path="url(#clip0_5497_402915)">
<path d="M16.3632 33.2976C16.3632 30.3383 18.7551 27.9464 21.7144 27.9464V22.5952H0.30957V27.9464C3.26886 27.9464 5.66077 30.3383 5.66077 33.2976C5.66077 36.2569 3.26886 38.6488 0.30957 38.6488V44H21.7144V38.6488C18.7551 38.6488 16.3632 36.2569 16.3632 33.2976Z" fill="white"/>
<path d="M24.3398 0.233643V21.1823C30.4476 21.1823 35.3983 16.4986 35.3983 10.7135C35.3983 16.4986 40.3489 21.1823 46.4567 21.1823V0.233643C40.3489 0.233643 35.3983 4.91733 35.3983 10.7024C35.3983 4.91733 30.4476 0.233643 24.3398 0.233643Z" fill="white"/>
<path d="M15.8292 0.0333755C15.5955 0.0111252 15.3619 0 15.1283 0H0.30957V21.4048H4.53713V14.7297H15.1283C15.3619 14.7297 15.5955 14.7297 15.8292 14.6963C19.8342 14.3626 22.9048 11.1808 22.9048 7.36485C22.9048 3.54893 19.8342 0.378255 15.8292 0.0445006V0.0333755ZM15.7624 11.7704H4.47038V2.85917H15.7735C17.8539 2.85917 19.545 4.85057 19.545 7.32035C19.545 9.79014 17.8539 11.7815 15.7735 11.7815L15.7624 11.7704Z" fill="white"/>
<path d="M24.0952 40.44L27.8666 44.0111H24.0952V40.44ZM24.0952 26.1664L42.9301 44.0111H36.6221L24.1063 32.1517V26.1775L24.0952 26.1664ZM34.1969 22.5952L46.7015 34.4324V40.4288L27.8666 22.5952H34.1969ZM46.7015 22.5952V26.1664L42.9301 22.5952H46.7015Z" fill="white"/>
</g>
<defs>
<clipPath id="clip0_5497_402915">
<rect width="46.3808" height="44" fill="white" transform="translate(0.30957)"/>
</clipPath>
</defs>
</svg>
