<svg width="53" height="50" viewBox="0 0 53 50" fill="none" xmlns="http://www.w3.org/2000/svg">
<path fill-rule="evenodd" clip-rule="evenodd" d="M20.9969 3.55081C22.7256 3.26926 24.476 3.12683 26.2297 3.12503C28.1405 3.11473 30.0488 3.25727 31.9346 3.55113C33.3731 3.69211 34.7126 4.31457 35.715 5.3079C36.7175 6.30123 37.3181 7.60111 37.41 8.97659V18.915C37.4163 19.6061 37.2796 20.2915 37.0078 20.9321C36.7359 21.5728 36.3342 22.156 35.8257 22.6486C35.3172 23.1412 34.7118 23.5334 34.0441 23.8028C33.3765 24.0722 32.6596 24.2136 31.9346 24.2188H20.9968C19.1983 24.2474 17.4813 24.9387 16.2059 26.1476C14.9305 27.3565 14.1957 28.9892 14.1558 30.7032V35.4724H10.3905C7.20823 35.4724 5.34921 33.2707 4.57085 30.1807C3.54291 26.7126 3.54291 23.041 4.57085 19.573C4.87365 18.0638 5.72617 16.7052 6.9779 15.7369C8.22962 14.7687 9.80003 14.2531 11.4118 14.2813H26.4723V12.9546H15.5215V8.97628C15.5215 5.96441 16.3628 4.33113 20.9969 3.55081ZM21.4751 6.64451C21.1278 6.42993 20.7214 6.31862 20.3076 6.32472C19.7579 6.33053 19.233 6.54375 18.8478 6.91767C18.4627 7.2916 18.2488 7.79575 18.2528 8.31972C18.2541 8.7142 18.3784 9.09942 18.6099 9.42642C18.8414 9.75341 19.1697 10.0074 19.553 10.1561C19.9364 10.3049 20.3575 10.3416 20.7628 10.2617C21.1681 10.1817 21.5393 9.98873 21.8292 9.70722C22.1192 9.42571 22.3147 9.06839 22.3911 8.68068C22.4674 8.29296 22.4211 7.89237 22.258 7.5298C22.0949 7.16724 21.8224 6.85909 21.4751 6.64451ZM38.7758 18.9161V14.2812L42.8854 14.2798C46.0722 14.2798 47.574 16.5517 48.3608 19.5715C49.4845 23.0263 49.4845 26.7244 48.3608 30.1792C47.254 33.355 46.0681 35.4709 42.8854 35.4709H26.4722V36.7969H37.4102V40.7761C37.4102 43.7881 34.6917 45.3192 31.9348 46.08C28.3739 47.1415 24.5578 47.1415 20.9969 46.08C18.1022 45.2684 15.5215 43.6042 15.5215 40.7761V30.8375C15.5269 29.447 16.1027 28.1138 17.1258 27.1226C18.149 26.1315 19.5384 25.5612 20.9969 25.5336H31.9348C33.7519 25.4887 35.4799 24.7741 36.7557 23.54C38.0314 22.3059 38.7555 20.6485 38.7758 18.9161ZM33.7928 39.77C33.4452 39.5549 33.0383 39.4432 32.624 39.4494C32.3524 39.4509 32.0838 39.5033 31.8336 39.6038C31.5833 39.7043 31.3563 39.8508 31.1655 40.0349C30.9747 40.2191 30.8238 40.4372 30.7215 40.677C30.6192 40.9167 30.5674 41.1734 30.5692 41.4322C30.5679 41.8272 30.69 42.2136 30.92 42.5422C31.15 42.8708 31.4774 43.1267 31.8605 43.2773C32.2437 43.4279 32.6652 43.4664 33.0713 43.3878C33.4775 43.3093 33.8499 43.1172 34.1411 42.8362C34.4323 42.5552 34.6292 42.1979 34.7066 41.8098C34.784 41.4217 34.7384 41.0205 34.5757 40.6572C34.4129 40.294 34.1404 39.9851 33.7928 39.77Z" fill="white"/>
</svg>
