<svg width="50" height="45" viewBox="0 0 50 45" fill="none" xmlns="http://www.w3.org/2000/svg">
<path d="M49.4473 22.0225C49.4473 18.7469 45.3452 15.6425 39.0559 13.7175C40.5073 7.30724 39.8623 2.20729 37.02 0.5745C36.3649 0.1915 35.5989 0.0100788 34.7623 0.0100788V2.25769C35.2259 2.25769 35.5989 2.3484 35.9113 2.51974C37.282 3.3059 37.8767 6.29935 37.4131 10.1495C37.3022 11.0969 37.1208 12.0947 36.899 13.1127C34.9236 12.6289 32.7667 12.256 30.4989 12.0141C29.1382 10.1495 27.7272 8.45624 26.3061 6.97463C29.5918 3.92071 32.676 2.24761 34.7724 2.24761V0C32.0007 0 28.3722 1.97548 24.7035 5.40232C21.0348 1.99563 17.4063 0.040316 14.6346 0.040316V2.28792C16.721 2.28792 19.8152 3.95095 23.101 6.98471C21.6899 8.46632 20.2789 10.1495 18.9384 12.0141C16.6605 12.256 14.5036 12.6289 12.5281 13.1228C12.2963 12.1149 12.125 11.1372 12.004 10.1999C11.5303 6.34974 12.1149 3.35629 13.4756 2.56005C13.7779 2.37863 14.171 2.298 14.6346 2.298V0.0503948C13.788 0.0503948 13.022 0.231816 12.3568 0.614816C9.52461 2.24761 8.88964 7.33748 10.3511 13.7275C4.08197 15.6627 0 18.7569 0 22.0225C0 25.2982 4.10213 28.4025 10.3914 30.3276C8.94003 36.7378 9.58508 41.8377 12.4273 43.4705C13.0825 43.8535 13.8485 44.0349 14.6951 44.0349C17.4668 44.0349 21.0952 42.0595 24.764 38.6326C28.4327 42.0393 32.0611 43.9946 34.8329 43.9946C35.6795 43.9946 36.4455 43.8132 37.1107 43.4302C39.9429 41.7974 40.5779 36.7075 39.1164 30.3175C45.3654 28.3924 49.4473 25.2881 49.4473 22.0225ZM36.3245 15.2999C35.9516 16.6 35.488 17.9405 34.9639 19.281C34.5506 18.4747 34.1172 17.6684 33.6435 16.8621C33.1799 16.0558 32.686 15.2696 32.1922 14.5036C33.6234 14.7153 35.0042 14.9773 36.3245 15.2999ZM31.7084 26.0339C30.9222 27.3946 30.1159 28.6847 29.2794 29.8841C27.7776 30.0151 26.2557 30.0857 24.7237 30.0857C23.2017 30.0857 21.6798 30.0151 20.1881 29.8942C19.3516 28.6948 18.5352 27.4148 17.749 26.0642C16.983 24.7438 16.2876 23.4033 15.6526 22.0527C16.2775 20.7022 16.983 19.3516 17.739 18.0312C18.5251 16.6706 19.3314 15.3805 20.168 14.1811C21.6697 14.0501 23.1917 13.9795 24.7237 13.9795C26.2456 13.9795 27.7675 14.0501 29.2592 14.171C30.0957 15.3704 30.9121 16.6504 31.6983 18.001C32.4643 19.3214 33.1597 20.6619 33.7947 22.0124C33.1597 23.363 32.4643 24.7136 31.7084 26.0339ZM34.9639 24.7237C35.5081 26.0742 35.9718 27.4248 36.3548 28.7351C35.0344 29.0576 33.6435 29.3298 32.2023 29.5414C32.6961 28.7653 33.19 27.9691 33.6536 27.1527C34.1173 26.3464 34.5506 25.53 34.9639 24.7237ZM24.7438 35.4779C23.8065 34.5103 22.8691 33.4319 21.9419 32.2526C22.849 32.293 23.7762 32.3232 24.7136 32.3232C25.661 32.3232 26.5984 32.303 27.5155 32.2526C26.6084 33.4319 25.6711 34.5103 24.7438 35.4779ZM17.2451 29.5414C15.8139 29.3298 14.4331 29.0677 13.1127 28.7452C13.4856 27.445 13.9493 26.1045 14.4734 24.764C14.8866 25.5703 15.32 26.3766 15.7937 27.1829C16.2674 27.9893 16.7512 28.7754 17.2451 29.5414ZM24.6934 8.56711C25.6308 9.53469 26.5681 10.6131 27.4954 11.7924C26.5883 11.7521 25.661 11.7218 24.7237 11.7218C23.7762 11.7218 22.8389 11.742 21.9217 11.7924C22.8288 10.6131 23.7662 9.53469 24.6934 8.56711ZM17.235 14.5036C16.7411 15.2797 16.2473 16.0759 15.7836 16.8923C15.32 17.6986 14.8866 18.505 14.4734 19.3113C13.9291 17.9607 13.4655 16.6101 13.0825 15.2999C14.4028 14.9874 15.7937 14.7153 17.235 14.5036ZM8.11356 27.1225C4.54561 25.6005 2.23753 23.6049 2.23753 22.0225C2.23753 20.4401 4.54561 18.4344 8.11356 16.9226C8.98035 16.5496 9.92777 16.217 10.9054 15.9046C11.4799 17.8801 12.2358 19.9362 13.1732 22.0427C12.2459 24.1391 11.5001 26.1851 10.9357 28.1505C9.93785 27.8381 8.99043 27.4954 8.11356 27.1225ZM13.536 41.5253C12.1653 40.7391 11.5706 37.7457 12.0343 33.8955C12.1451 32.9481 12.3266 31.9503 12.5483 30.9323C14.5238 31.4161 16.6807 31.789 18.9484 32.0309C20.3091 33.8955 21.7201 35.5888 23.1413 37.0704C19.8555 40.1243 16.7714 41.7974 14.675 41.7974C14.2214 41.7873 13.8384 41.6966 13.536 41.5253ZM37.4433 33.8451C37.917 37.6953 37.3324 40.6887 35.9718 41.485C35.6694 41.6664 35.2763 41.747 34.8127 41.747C32.7264 41.747 29.6321 40.084 26.3464 37.0502C27.7574 35.5686 29.1685 33.8854 30.509 32.0208C32.7868 31.7789 34.9437 31.406 36.9192 30.9121C37.151 31.9301 37.3324 32.9078 37.4433 33.8451ZM41.3237 27.1225C40.4569 27.4954 39.5095 27.828 38.5318 28.1404C37.9573 26.165 37.2014 24.1089 36.2641 22.0024C37.1913 19.9059 37.9372 17.8599 38.5016 15.8945C39.4994 16.207 40.4468 16.5496 41.3338 16.9226C44.9017 18.4445 47.2098 20.4401 47.2098 22.0225C47.1997 23.6049 44.8917 25.6106 41.3237 27.1225Z" fill="white"/>
<path d="M24.7135 26.6287C27.2574 26.6287 29.3196 24.5665 29.3196 22.0226C29.3196 19.4787 27.2574 17.4165 24.7135 17.4165C22.1696 17.4165 20.1074 19.4787 20.1074 22.0226C20.1074 24.5665 22.1696 26.6287 24.7135 26.6287Z" fill="white"/>
</svg>
