<svg width="53" height="46" viewBox="0 0 53 46" fill="none" xmlns="http://www.w3.org/2000/svg">
<path d="M30.6372 2.35268C30.2047 1.63488 29.594 1.04106 28.8643 0.628837C28.1347 0.216619 27.3109 0 26.4728 0C25.6348 0 24.811 0.216619 24.0814 0.628837C23.3517 1.04106 22.741 1.63488 22.3085 2.35268L15.4582 14.0857C20.6915 16.6985 25.1504 20.6348 28.3921 25.5037C31.6338 30.3726 33.5455 36.0048 33.9374 41.841H29.1276C28.7364 36.8383 27.0457 32.0245 24.2227 27.8758C21.3998 23.7272 17.5424 20.3876 13.0325 18.1876L6.69225 29.1502C9.22763 30.2873 11.4364 32.0436 13.1156 34.2575C14.7947 36.4715 15.8902 39.0721 16.3015 41.8202H5.25555C5.12455 41.811 4.99792 41.7692 4.88707 41.6988C4.77622 41.6284 4.68465 41.5315 4.62061 41.4168C4.55657 41.3022 4.52207 41.1734 4.52023 41.042C4.5184 40.9107 4.54927 40.781 4.61008 40.6646L7.67087 35.4592C6.63388 34.594 5.44873 33.9238 4.17282 33.4811L1.14327 38.6866C0.827878 39.2275 0.623127 39.8258 0.540913 40.4466C0.458699 41.0673 0.50066 41.6983 0.664359 42.3027C0.828057 42.9071 1.11023 43.473 1.49448 43.9674C1.87874 44.4619 2.35741 44.875 2.9027 45.1829C3.62115 45.5877 4.43093 45.8027 5.25555 45.8076H20.3825C20.6634 42.3408 20.0444 38.8603 18.5852 35.703C17.1261 32.5458 14.8763 29.8189 12.0538 27.7864L14.4587 23.6221C18.0207 26.0685 20.8832 29.4015 22.7637 33.2921C24.6442 37.1828 25.4777 41.4965 25.1819 45.8076H37.9976C38.2961 39.2768 36.8753 32.7821 33.8773 26.9725C30.8794 21.1629 26.4092 16.2418 20.9135 12.7011L25.7753 4.37239C25.8837 4.19087 26.0593 4.05949 26.264 4.00684C26.4688 3.9542 26.686 3.98455 26.8685 4.09129C27.4202 4.39321 47.9921 40.2898 48.3773 40.7063C48.4451 40.8279 48.4796 40.9654 48.4774 41.1047C48.4751 41.244 48.436 41.3802 48.3642 41.4996C48.2923 41.619 48.1902 41.7173 48.0682 41.7845C47.9462 41.8518 47.8086 41.8857 47.6693 41.8827H42.7138C42.7762 43.2083 42.7762 44.5305 42.7138 45.8492H47.6901C48.3221 45.8534 48.9485 45.7321 49.5332 45.4925C50.118 45.2529 50.6494 44.8997 51.0967 44.4534C51.544 44.007 51.8984 43.4764 52.1393 42.8921C52.3801 42.3079 52.5027 41.6817 52.5 41.0498C52.5006 40.2152 52.2777 39.3955 51.8545 38.6761L30.6372 2.35268Z" fill="white"/>
</svg>
