<svg width="45" height="44" viewBox="0 0 45 44" fill="none" xmlns="http://www.w3.org/2000/svg">
<g clip-path="url(#clip0_5497_402654)">
<path d="M12.0692 22.0695C12.0692 23.1881 12.0692 24.3067 12.0692 25.4252C12.0529 26.9439 11.1792 27.842 9.66874 27.8502C7.41526 27.8584 5.15361 27.8584 2.90013 27.8502C1.41414 27.8502 0.516017 26.9521 0.507853 25.4824C0.491523 23.2044 0.491523 20.9265 0.507853 18.6485C0.516017 17.2033 1.40598 16.3052 2.84298 16.2889C5.14545 16.2725 7.43975 16.2725 9.74222 16.2889C11.1711 16.297 12.0447 17.2033 12.0692 18.6485C12.0692 18.6893 12.0692 18.7383 12.0692 18.7791C12.0692 19.8732 12.0692 20.9754 12.0692 22.0695Z" fill="white"/>
<path d="M6.28053 32.2834C7.37461 32.2834 8.47685 32.2834 9.57094 32.2834C11.1794 32.2916 12.0612 33.1571 12.0612 34.741C12.0612 36.9537 12.0612 39.1664 12.0612 41.3872C12.0612 42.9793 11.1794 43.8448 9.57094 43.8529C7.37461 43.8529 5.18645 43.8529 2.99012 43.8529C1.35717 43.8529 0.499864 42.9793 0.491699 41.33C0.491699 39.1582 0.491699 36.9864 0.491699 34.8145C0.491699 33.1407 1.35717 32.2916 3.04728 32.2834C4.12503 32.2834 5.19461 32.2834 6.27236 32.2834H6.28053Z" fill="white"/>
<path d="M28.1947 38.0805C28.1947 39.1991 28.2028 40.3177 28.1947 41.4362C28.1783 42.9549 27.3047 43.8448 25.7861 43.853C23.5326 43.8612 21.2709 43.8612 19.0175 43.853C17.5396 43.8448 16.6415 42.9549 16.6333 41.4852C16.617 39.2072 16.617 36.9293 16.6333 34.6513C16.6415 33.2061 17.5396 32.308 18.9685 32.2998C21.2709 32.2835 23.5652 32.2835 25.8677 32.2998C27.272 32.308 28.162 33.2061 28.1865 34.6023C28.2028 35.7617 28.1865 36.9211 28.1865 38.0887L28.1947 38.0805Z" fill="white"/>
<path d="M28.1704 22.1102C28.1704 23.1635 28.1949 24.2167 28.1622 25.27C28.1541 25.6946 28.0969 26.1355 27.9418 26.5274C27.558 27.4908 26.7252 27.8174 25.7618 27.8256C23.5246 27.8419 21.2956 27.8501 19.0585 27.8256C17.5562 27.8092 16.6907 26.9519 16.6744 25.4578C16.6499 23.2043 16.6417 20.9427 16.6744 18.6892C16.6907 17.2195 17.5398 16.3541 19.0095 16.3377C21.2875 16.3051 23.5654 16.3051 25.8434 16.3377C27.3131 16.3622 28.1377 17.2277 28.1704 18.7055C28.1949 19.8404 28.1704 20.9835 28.1704 22.1184V22.1102Z" fill="white"/>
<path d="M44.4996 38.1622C44.4996 39.3624 44.467 40.5708 44.5078 41.771C44.5486 43.0692 43.4709 44.0081 42.2625 44C39.9192 43.9918 37.5759 44.0081 35.2326 43.9918C33.9018 43.9836 33.0118 43.0692 33.0036 41.7465C32.9955 39.3624 33.0036 36.9701 33.0036 34.586C33.0036 33.2633 33.8446 32.3815 35.1591 32.3733C37.5677 32.357 39.9764 32.357 42.385 32.3733C43.6587 32.3815 44.4751 33.2061 44.4915 34.4798C44.5078 35.7046 44.4915 36.9293 44.4915 38.154L44.4996 38.1622Z" fill="white"/>
<path d="M6.43553 0C7.61126 0 8.79515 0 9.97904 0C11.2201 0.0163296 11.9713 0.702171 12.1264 1.93505C12.1509 2.14734 12.159 2.35962 12.159 2.58007C12.159 4.66209 12.159 6.75227 12.159 8.83429C12.159 9.11189 12.1427 9.3895 12.0937 9.6671C11.9304 10.7122 11.1058 11.4389 10.0444 11.447C7.61126 11.4634 5.18632 11.4634 2.75321 11.447C1.71629 11.447 0.907974 10.753 0.703854 9.74058C0.66303 9.5283 0.630371 9.31601 0.630371 9.10373C0.630371 6.84209 0.630371 4.58861 0.630371 2.32696C0.630371 2.04936 0.671195 1.76359 0.736513 1.50232C0.973292 0.645018 1.73262 0.0326591 2.62258 0.0163296C3.88812 -0.00816478 5.16182 0.0163296 6.42736 0.0163296L6.43553 0Z" fill="white"/>
</g>
<defs>
<clipPath id="clip0_5497_402654">
<rect width="44.0163" height="44" fill="white" transform="translate(0.491699)"/>
</clipPath>
</defs>
</svg>
