<svg width="46" height="45" viewBox="0 0 46 45" fill="none" xmlns="http://www.w3.org/2000/svg">
<g clip-path="url(#clip0_5497_402932)">
<path fill-rule="evenodd" clip-rule="evenodd" d="M39.7968 0.998535H6.21749C3.33133 0.998535 0.986328 3.34354 0.986328 6.22969V39.7535C0.986328 41.1411 1.52748 42.487 2.51266 43.4722C3.49784 44.4574 4.82991 45.0124 6.21749 45.0124H39.7968C41.1844 45.0124 42.5164 44.4574 43.5016 43.4722C44.4868 42.487 45.028 41.155 45.028 39.7535V6.22969C45.028 3.34354 42.683 1.01241 39.7968 0.998535ZM19.9822 32.6907C19.9822 33.1625 19.788 33.6065 19.4688 33.9257C19.1358 34.2587 18.6918 34.4391 18.22 34.4252H10.8797C9.92231 34.4252 9.14527 33.6482 9.14527 32.6769V10.8642C9.14527 9.90677 9.92231 9.12972 10.8797 9.11585H18.22C19.1774 9.11585 19.9545 9.89289 19.9684 10.8642L19.9961 32.7046L19.9822 32.6907ZM36.9106 22.6725C36.9106 23.1442 36.7303 23.5883 36.3972 23.9074C36.0642 24.2265 35.6202 24.4208 35.1484 24.4069H27.8082C26.8507 24.4069 26.0737 23.6299 26.0598 22.6586V10.8642C26.0598 9.90677 26.8369 9.12972 27.8082 9.11585H35.1484C36.1059 9.11585 36.8829 9.89289 36.8829 10.8642L36.9106 22.6725Z" fill="white"/>
</g>
<defs>
<clipPath id="clip0_5497_402932">
<rect width="44.0278" height="44" fill="white" transform="translate(0.986328 0.998535)"/>
</clipPath>
</defs>
</svg>
